<svg xmlns="http://www.w3.org/2000/svg" xmlns:xlink="http://www.w3.org/1999/xlink" viewBox="0 0 900 350"><g fill-rule="evenodd" clip-rule="evenodd"><path opacity=".2" fill="#2B2B2B" d="M107.615 273.331l5.867-17.172-8.001-10.934 5.334-24.51-57.049-5.331-4.557 23.978 7.023 1.07 3.645-18.412 42.671 4.994-2.934 17.344-14.135-2.333-1.386 31.306z"/><path opacity=".1" fill="#2B2B2B" d="M53.766 287.392l61.316-8.475-7.467-5.586-56.051-.188-37.024 9.368z"/><path opacity=".2" fill="#2B2B2B" d="M316.999 272.805V254.06l-25.246-39.141 1.777-15.388-17.779-6.444-3.556 31.52-32.463 36.919-15.44-2.377 1.476-165.737-8.739 2.805-3.246 161.453-32.263 10.312 105.114 4.823z"/><path opacity=".1" fill="#2B2B2B" d="M162.423 274.27l39.696 8.241 50.341 5.384 49.988-5.384 14.551-9.706h-55.695z"/><path fill="#99C26D" d="M216.1506273 92.3439437l9.6100191 1.0626231-18.2469168 165.0192048-9.6100191-1.0626231z"/><path fill="#3F8F6F" d="M166.5402689 250.0177789l73.1838387 8.0922667-1.6815799 15.2076639-73.1838387-8.0922667z"/><path fill="#99C26D" d="M238.56 268.726l.107 14.87-9.808-1.085-11.83-2.203-16.686-.95-4.772-.441-11.147-2.214-9.101-2.622-12.9.189 2.95-13.637z"/><path fill="#BFDB8E" d="M228.097 267.569l.762 14.942-11.83-2.203 3.646-13.56zM200.343 279.358l1.776-14.662-4.958-.548-1.59 14.769zM184.424 276.703l5.172-13.392-13.189-1.458-1.084 12.228zM213.783 265.986l-1.554 14.049-5.33-.304 3.173-14.155z"/><g><path fill="#5B5B5B" d="M295.131 254.713l-13.246 28.204-29.425 3.156 19.544-18.451z"/><path fill="#686868" d="M220.675 266.748l16.762 16.614 15.023 2.711-13.342-34.12z"/><path fill="#737373" d="M272.195 270.472l-19.735 15.601-1.309-13.76 1.869-10.787 8.375 2.012z"/><path fill="#858686" d="M252.46 286.073l-14.046-31.36 8.446 1.179 6.16 5.634z"/><path fill="#757575" d="M268.639 217.413l26.492 37.3-22.936 15.759-3.556-24.18z"/><path fill="#858686" d="M249.172 212.532l-28.497 54.216 17.739-12.035 5.391-13.489z"/><path fill="#757575" d="M251.151 204.768l-14.692-13.595 12.713-7.287z"/><path fill="#5B5B5B" d="M251.151 204.768l-5.434-28.616h12.712l-3.569 28.616z"/><path fill="#858686" d="M263.661 201.841l9.957-30.34-13.868-.543-8.599 33.81-.468 4.011-1.511 24.067 3.848 28.68 19.175 8.946-3.556-53.059-3.874-8.487z"/><path fill="#9DA1A2" d="M250.504 207.31l2.516 54.216-14.606-6.813z"/><path fill="#C4C4C4" d="M249.172 212.532l19.467 4.881-2.306-7.214-16.241-1.273z"/><path fill="#898989" d="M250.092 208.926l16.241 1.273-1.568-4.904-13.614-.527z"/><path fill="#CECECD" d="M250.092 208.926l14.673-3.631-1.104-3.454-12.51 2.927z"/></g><g><path fill="#35785D" d="M53.766 258.438l38.722-21.689-40.924-8.048z"/><path fill="#3F8F6F" d="M51.564 228.701l-35.158 10.661 39.826 18.308z"/><path fill="#72C9A6" d="M16.406 239.362l11.201 42.133 26.159 5.897 1.711-25.711-.756-13.386z"/><path fill="#54B08B" d="M92.488 236.749l-9.942 43.323-28.78 7.32.955-39.097z"/><path fill="#99C26D" d="M16.406 239.362v-35.753l5.068 3.875 1.067 4.116-1.803 28.832zM92.488 236.749l-7.009-37.218-5.067 4.078v3.136l6.401 31.739z"/><path fill="#738D56" d="M22.541 211.6l57.871-4.855 5.067-7.214-69.073 4.078z"/></g></g><g fill-rule="evenodd" clip-rule="evenodd"><path opacity=".1" fill="#777" d="M101.291 332.433l72.908-14.224 77.962 11.423-88.986 14.268z"/><path fill="#35785D" d="M188.155 320.698v10.401h4.534l2.321-5.2-2.188-2.667z"/><path fill="#F5CAB3" d="M184.071 280.35l5.538 11.454 6.547 19.916-2.8 2.06h-5.201l-32.269-35.752zM147.618 278.028l-4.933 35.752-4.401 1.184-5.245-1.184-5.598-16.287-3.025-17.225z"/><path fill="#FFE6D6" d="M196.156 311.72l15.824 12.979-11.912-.934-11.913-3.067v-6.918zM142.685 313.78l7.6 13.586-8.092 2.266-7.909-.844-1.245-15.008z"/><path fill="#3F8F6F" d="M211.98 324.699l10.312 7.734h-18.669l-15.468-11.735zM150.285 327.366l5.601 8-21.602-1.066v-5.512z"/><path fill="#C4937D" d="M127.442 297.496l16.321 8.473 1.388-10.065-8.854-1.341zM189.61 291.807l-12.884 9.31-6.779-7.511 9.007-3.177zM107.481 249.492l-7.845-5.334 7.845-9.334 1.334 6.534z"/><path fill="#F5CAB3" d="M107.481 230.29v19.202l7.334-7.334 2.376-6.189-4.509-4.745zM198.841 187.086l-26.856 27.419 5.318-30.825z"/><path fill="#FFE6D6" d="M85.39 194.373l22.091 35.917 9.71 5.679-5.014-36.876z"/><path fill="#3F8F6F" d="M112.682 171.886L85.39 194.373l35.559 10.315v-16.401zM163.175 157.09l35.666 29.996h-18.686l-9.601-11.467z"/><path fill="#3F8F6F" d="M120.949 204.688l29.336-11.201 29.87-6.401-12.268 41.174-42.293-3.993z"/><path fill="#FFE6D6" d="M126.816 161.484l-14.134 10.402 37.07 11.794 13.423-26.59z"/><path fill="#515151" d="M177.727 73.965l13.629 12.668-9.343 22.844-7.814-24.889zM90.369 120.591l-4.979 18.224 28.492 8.149-11.157-14.772z"/><path fill="#6D6D6D" d="M176.688 82.81l3.644-31.025-40.714 16.09-36.27 9.512 11.29 12.535 8.178 6.223z"/><path fill="#515151" d="M103.348 77.387l-10.846 34.757 16.98-6.754 13.334-9.245-5.943-9.334z"/><path fill="#858686" d="M122.816 96.145l-1.76 17.601h-15.344l-13.21-1.602z"/><path fill="#6D6D6D" d="M121.056 113.746v11.29l-6.33 3.912-4.444-6.934-12.847 6.486-7.066-7.909 2.133-8.447z"/><path fill="#FFE6D6" d="M176.688 82.81l11.467 57.43-34.403 8.072-8.001 12.905-18.134-4.127-24.269-29.784 6.667-3.955 5.6 6.668 6.134-2.713 1.067-31.161z"/><path fill="#F5CAB3" d="M122.816 96.145l12.535 56.455 18.401-4.288-6.667 15.581-20.269-2.409L97.435 128.5l12.847-8.353 4.533 7.159 5.168-2.829z"/><path fill="#C4937D" d="M153.752 148.312l-22.135 4.974 15.468 10.607z"/><path fill="#F5CAB3" d="M139.618 106.546l30.936-6.401-7.994 16.58-6.141 5.289z"/><path fill="#FFF1E8" d="M152.131 103.957l4.288 18.057 6.756-1.423-2.916-18.316z"/><path fill="#C4937D" d="M156.419 122.014l4.445 3.378 2.311-4.801z"/><circle fill="#2B2B2B" cx="167.887" cy="109.477" r="2.667"/><circle fill="#2B2B2B" cx="147.618" cy="113.746" r="2.667"/><path fill="#858686" d="M122.816 96.145l57.516-44.36-76.984 25.602z"/><path fill="#C4937D" d="M108.843 141.307l8.03-4.892-2.991 10.549zM103.348 130.019l4.311-2.713 3.956 5.974z"/><path fill="#54B08B" d="M152.241 134.815l11.023 2.667 6.756-6.223-7.911 2.134z"/><path fill="#35785D" d="M152.241 134.815l9.245-6.045 8.534 2.489-7.734 2.845z"/><path fill="#515151" d="M152.131 103.957l-1.135-3.812-11.378 6.401zM160.259 102.275l-.551-4.263 10.846 2.133z"/><path fill="#54B08B" d="M112.682 171.886l8.267 32.802 59.206-17.602-16.98-29.996-15.557 22.323z"/><path fill="#99C26D" d="M167.887 228.26l-42.293-3.993-18.113 25.225 18.446 18.985 31.025-3.631 19.367-12.464z"/><path fill="#738D56" d="M176.319 252.382l13.291 39.425-62.168 5.689-6.493-18.89z"/><path fill="#709D53" d="M176.319 252.382l-68.838-2.89 13.468 29.114z"/></g><g fill-rule="evenodd" clip-rule="evenodd"><path fill="#35785D" d="M536.911 37.238l195.256-2.733-11.274 162.487-175.754 4.015z"/><path opacity=".1" d="M543.527 177.37l17.517-8.32 3 7.487 11 1.025 2-10.505L590.377 163l2 4.057 20.333 3.224 2.667 8.226L629.507 163l12.203-3.346 2 5.105 13.91 3.795 4.684 7.983 4.697-11.778 16.398-3.609 14.797 4.114 11.848-4.114h8.287l-1.537 38.167h-85.865l-87.402 1.391z"/><path fill="#8F8F8F" d="M542.391 41.015l184.822-4.461-3.758 18.352-96.91-4.686-84.837.683zM718.673 136.006l-178.331-6.528 1.708 14.007 84.495 3.758 92.128-1.709z"/><path fill="#9DA1A2" d="M720.893 41.015l-6.149 13.699-2.114 76.576 8.263-4.268zM714.744 138.783l-7.687 6.751v52.441l9.737 1.342zM546.833 44.753l10.044 6.028-6.97 72.59-8.199-.219zM545.664 134.277l8.01 9.343v56.777l-8.535.61z"/><path fill="#CCC" d="M525.208 29.38l11.888 184.752 191.484-3.002 15.373-190.975-218.745 9.225zm95.689 161.496l-70.989 4.366-4.243-60.965 76.035 5.028-.803 51.571zm-74.28-71.861l.216-74.262 77.799-3.738 1.914 82.356-79.929-4.356zm166.013 75.466l-79.454-2.961v-55.515l81.568 2.777-2.114 55.699zm4.164-73.644l-78.044 2.076-.314-81.898h82.458l-4.1 79.822z"/><path fill="#54B08B" d="M704.495 65.593l-21.352 16.536-20.839 22.323L687.6 83.699zM666.798 89.338l27.263-21.719-12.922 6.237z"/><path fill="#3F8F6F" d="M696.962 99.273l-.953-4.433 3.693-1.571-2.74-7.503 10.638-5.81-2.913 7.881 2.017 3.588-1.905 4.4zM664.372 57.052h9.588l-4.379 8.541-7.277 2.026-4.684-6.467z"/><path fill="#99C26D" d="M667.001 112.097h-3.687v4.535h3.687l1.437-2.378z"/><path fill="#3F8F6F" d="M670.67 118.787l-2.687 10.096-2.826.595 1.641 2.837 3.107-2.026 6.277-8.263-2.222-3.239z"/><path fill="#54B08B" d="M678.275 199.857l-9.44-44.114 17.106-1.71 15.864 2.582-7.388 44.093z"/><path fill="#72C9A6" d="M668.835 155.743l12.258-37.539h9.224l11.488 38.411z"/><path opacity=".1" d="M679.766 122.267l-1.146 3.511 14.641 2.269-1.487-4.971-6.454-2.627z"/><path fill="#99C26D" d="M676.182 122.026l19.986 1.345v-9.006l-2.093-8.453-18.77.57-1.345 8.16z"/><path fill="#709D53" d="M694.075 105.912l8.242 6.185-1.026 9.194-5.123 2.08zM675.305 106.482l-8.304 5.615v4.535l9.181 5.394z"/><path fill="#3F8F6F" d="M653.599 78.478l4.021-3.597 2.292 5.075-4.395 4.768z"/></g><defs><path id="a" d="M502.592 13.665l8.697 88.285 19.552 14.965-26.258 2.096-8.14 47.534-72.676 5.28-167.149-42.721L322.473 0z"/></defs><clipPath id="b"><use xlink:href="#a" overflow="visible"/></clipPath><path clip-path="url(#b)" fill-rule="evenodd" clip-rule="evenodd" fill="#BFDB8E" d="M275.983 74.881l46.49-81.03h197.371l17.252 158.891-84.415 48.091-208.362-70.084z"/><path clip-path="url(#b)" fill-rule="evenodd" clip-rule="evenodd" fill="#E0F2B8" d="M519.844 74.881h-29.551l-8.284 7.083 14.434 2.098 2.527 6.301 26.238-5.639zM395.483 66.276l23.566-3.941h30.248l-2.795 7.045-19.752 5.501-14.284 1.544zM442.977 36.64L304.764 10.078l-35.677 69.644 173.89-40.093zM459.717 36.64l77.194-26.562 1.313 53.281-78.507-23.73z"/><path clip-path="url(#b)" fill-rule="evenodd" clip-rule="evenodd" fill="#709D53" d="M410.365 169.849L275.017 62.335l-36.847 75.473 173.997 52.512z"/><path clip-path="url(#b)" fill-rule="evenodd" clip-rule="evenodd" fill="#3F8F6F" d="M364.17 168.042l78.807-93.161h16.74l86.9 85.474-90.829 34.178z"/><path clip-path="url(#b)" fill-rule="evenodd" clip-rule="evenodd" fill="#72C9A6" d="M398.037 176.877l92.256-52.59-37.612-25.158 10.467-10.583-8.779-13.665h-5.413l3.725 12.662-16.816 12.095 27.283 23.342-98.978 45.062z"/><path clip-path="url(#b)" fill-rule="evenodd" clip-rule="evenodd" fill="#99C26D" d="M456.642 41.015h-10.59l-3.075 33.866h16.74z"/><path opacity=".2" clip-path="url(#b)" fill-rule="evenodd" clip-rule="evenodd" d="M445.624 45.73l11.68 2.574-.662-7.289h-10.59z"/><path clip-path="url(#b)" fill-rule="evenodd" clip-rule="evenodd" fill="#99C26D" d="M442.977 34.505h16.74v10.249h-16.74z"/><path clip-path="url(#b)" fill-rule="evenodd" clip-rule="evenodd" fill="#54B08B" d="M442.977 34.505l8.37-8.541 8.37 8.541z"/><path clip-path="url(#b)" fill-rule="evenodd" clip-rule="evenodd" fill="#5A753D" d="M448.956 66.276h5.21v8.604h-5.21z"/><path clip-path="url(#b)" fill-rule="evenodd" clip-rule="evenodd" fill="#E0F2B8" d="M442.977 36.64h16.74v2.989h-16.74z"/><path clip-path="url(#b)" fill="#709D53" d="M327.353 183.425l-2.499 19.626-3.477.313-2.68-1.913-1.103-5.978 2.661-5.245z"/><path opacity=".1" clip-path="url(#b)" fill-rule="evenodd" clip-rule="evenodd" d="M286.769 216.945l29.588-2.932 22.924 3.599-28.622 4.031z"/><path clip-path="url(#b)" fill-rule="evenodd" clip-rule="evenodd" fill="#5A753D" d="M324.854 203.051l-5.548 7.988-9.804.235-5.84-1.142 5.84-11.08 15.352 3.999"/><path clip-path="url(#b)" fill-rule="evenodd" clip-rule="evenodd" fill="#3F8F6F" d="M303.662 210.132l-2.414 3.924 4.311 1.548 3.999-.008-.998-5.464z"/><path clip-path="url(#b)" fill="#35785E" d="M301.248 214.056l-.388 1.919 9.398 1.92-.7-2.299z"/><path clip-path="url(#b)" fill-rule="evenodd" clip-rule="evenodd" fill="#99C26D" d="M317.594 195.473l1.103 5.978-6.137 5.3-7.157 2.897-5.34-14.175-.699-7.723 12.026 3.262 6.204 4.461"/><path clip-path="url(#b)" fill="#709D53" d="M318.697 201.451l2.68 8.681-6.02 3.222-6.797 2.391-3.157-6.097z"/><path clip-path="url(#b)" fill-rule="evenodd" clip-rule="evenodd" fill="#F5CAB3" d="M334.55 175.145l1.003 5.253 1.912 3.848.29 2.991-6.704 2.519-3.698-8.51 1.177-3.085z"/><path clip-path="url(#b)" fill-rule="evenodd" clip-rule="evenodd" fill="#C4937D" d="M332.554 176.039l1.996 2.981.459 3.324-6.13 2.414-1.526-3.512.458-3.085 1.835-3.016z"/><path clip-path="url(#b)" fill-rule="evenodd" clip-rule="evenodd" fill="#FFE6D6" d="M334.55 175.145l2.499 4.815.416 4.286-1.516.512-3.395-8.719z"/><path clip-path="url(#b)" fill-rule="evenodd" clip-rule="evenodd" fill="#F5CAB3" d="M294.866 183.959l1.699 4.73-2.778 5.565-.513-6.504z"/><path clip-path="url(#b)" fill-rule="evenodd" clip-rule="evenodd" fill="#FFE6D6" d="M294.866 183.959l-1.079 10.295-7.718-2.699v-10.309l4.898-.848z"/><path clip-path="url(#b)" fill-rule="evenodd" clip-rule="evenodd" fill="#99C26D" d="M330.551 164.483l3.999 10.662-6.739 3.016-2.201-6.054 1.243-7.041 1.677-2.09zM295.865 174.08l-.999 9.879-8.797-2.713v-16.18l6.542 4.233z"/><path clip-path="url(#b)" fill-rule="evenodd" clip-rule="evenodd" fill="#709D53" d="M325.953 149.672l4.598 14.811-3.698.583-1.999-6.187zM292.666 151.871l5.03 7.444.668 11.503-2.499 3.262-9.796-9.014z"/><path clip-path="url(#b)" fill-rule="evenodd" clip-rule="evenodd" fill="#3F8F6F" d="M300.474 144.211l11.485 12.247 3.398-11.895z"/><path clip-path="url(#b)" fill-rule="evenodd" clip-rule="evenodd" fill="#FFE6D6" d="M322.754 114.586l3.199 25.79-8.197 1.599-7.796 6.177-15.394-7.577-4.998-7.796 4.398-13.195 12.275-5.798 7.417 2.49 4.098-2.845z"/><path clip-path="url(#b)" fill-rule="evenodd" clip-rule="evenodd" fill="#F5CAB3" d="M299.038 117.711l2.21 25.252 16.508-.988-7.597 8.197-15.593-9.597-4.998-7.796 4.398-13.195zM320.355 123.114l-5.38 5.113.382 3.952-3.398.315-2.775-4.69-4.42-3.401z"/><path clip-path="url(#b)" fill-rule="evenodd" clip-rule="evenodd" fill="#FFF1E8" d="M314.528 123.596l.829 8.583-3.398.315-1.007-8.603z"/><path clip-path="url(#b)" fill-rule="evenodd" clip-rule="evenodd" fill="#3F8F6F" d="M320.355 123.114l-5.731-.525-.096 1.007zM310.952 123.891v-1.302l-6.188 1.814z"/><path clip-path="url(#b)" fill-rule="evenodd" clip-rule="evenodd" fill="#2B2B2B" d="M318.697 127.123c0 .609-.494 1.103-1.103 1.103s-1.103-.494-1.103-1.103c0-.61.494-1.103 1.103-1.103s1.103.494 1.103 1.103zM309.665 127.804c0 .609-.494 1.103-1.103 1.103s-1.103-.494-1.103-1.103c0-.61.494-1.103 1.103-1.103s1.103.493 1.103 1.103z"/><path clip-path="url(#b)" fill-rule="evenodd" clip-rule="evenodd" fill="#3F8F6F" d="M315.357 132.179l5.398 2.849-13.728 1.213 4.932-3.747z"/><path opacity=".2" clip-path="url(#b)" fill-rule="evenodd" clip-rule="evenodd" d="M311.959 132.494l1.932 1.419 1.466-1.734z"/><path clip-path="url(#b)" fill-rule="evenodd" clip-rule="evenodd" fill="#3F8F6F" d="M293.966 119.584l2.599 11.529-2.266 1.066-1.466-1.98-3.265 2.58-.8-14.342 4.506-.085z"/><path clip-path="url(#b)" fill-rule="evenodd" clip-rule="evenodd" fill="#53AF8A" d="M293.966 119.584l12.658-4.674.403-2.573-2.263-2.882-15.996 8.982z"/><path clip-path="url(#b)" fill-rule="evenodd" clip-rule="evenodd" fill="#3F8F6F" d="M304.764 109.455l10.593 1.666 2.237 1.216.422 1.849-4.858 3.599-6.534-2.875z"/><path clip-path="url(#b)" fill-rule="evenodd" clip-rule="evenodd" fill="#53AF8A" d="M315.357 111.121l7.397 1.666v1.799l-4.738-.4z"/><path clip-path="url(#b)" fill-rule="evenodd" clip-rule="evenodd" fill="#C4937D" d="M317.756 141.975l-16.508.988-.388 1.66 9.299 5.549zM295.365 135.328l-3.155 1.572 2.211 3.45zM292.666 132.179l1.121 1.956-2.353-1.089z"/><path clip-path="url(#b)" fill-rule="evenodd" clip-rule="evenodd" fill="#53AF8A" d="M300.86 144.623l-8.194 7.248 5.698 18.947 8.26-6.335 5.335-8.025zM315.357 144.474l10.596 5.198.9 15.394-7.797-2.861-7.097-5.747z"/><path clip-path="url(#b)" fill-rule="evenodd" clip-rule="evenodd" fill="#99C26D" d="M300.86 144.623l11.099 11.835-7.195 1.597zM315.357 144.474l3.34 11.984h-6.738z"/><path clip-path="url(#b)" fill-rule="evenodd" clip-rule="evenodd" fill="#5A753D" d="M327.353 183.425l-9.759 12.048-18.23-7.723z"/><path clip-path="url(#b)" fill="#35785E" d="M298.364 170.818l13.595-14.36 3.398 11.751.6 11.751-8.041 1.918-9.052.681z"/><path clip-path="url(#b)" fill="#3F8F6F" d="M311.959 156.458l14.894 8.608.958 13.095-6.434 2.237-5.42-.438z"/><path clip-path="url(#b)" fill-rule="evenodd" clip-rule="evenodd" fill="#709D53" d="M298.864 182.559l.5 5.191 27.989-4.325.458-5.264-28.947 4.398"/><path clip-path="url(#b)" fill-rule="evenodd" clip-rule="evenodd" fill="#99C26D" d="M313.073 180.398l.585 5.143 5.748-.888v-5.215l-6.333.96"/><path clip-path="url(#b)" fill-rule="evenodd" clip-rule="evenodd" fill="#3F8F6F" d="M321.377 210.132l8.674 4.014-11.354 3.818-8.737 1.38-1.4-3.599 12.817-5.613"/><path clip-path="url(#b)" fill="#35785E" d="M330.051 214.146l.5 2.585-19.892 4.912-.699-2.299z"/><path clip-path="url(#b)" fill="#5A753D" d="M288.418 205.217l13.037 1.679-11.631 4.659-4.557-3.1.787-2.512z"/><path clip-path="url(#b)" fill-rule="evenodd" clip-rule="evenodd" fill="#FFE6D6" d="M285.267 196.464l3.151 8.753-3.151 3.238-10.092-8.899z"/><path clip-path="url(#b)" fill-rule="evenodd" clip-rule="evenodd" fill="#C4937D" d="M285.267 196.464l-5.591 7.06-4.501-3.968z"/><path clip-path="url(#b)" fill-rule="evenodd" clip-rule="evenodd" fill="#F5CAB3" d="M261.286 145.943l-4.317 13.469 5.037 9.577 3.597-3.581-4.317-19.465"/><path opacity=".1" clip-path="url(#b)" fill-rule="evenodd" clip-rule="evenodd" d="M247.207 212.844l28.947-2.471 30.217 2.878-31.176 1.439z"/><path clip-path="url(#b)" fill="#5A753D" d="M261.286 206.748l7.455 6.623h-11.772l-2.558-7.332 3.517-.58z"/><path clip-path="url(#b)" fill-rule="evenodd" clip-rule="evenodd" fill="#FFE6D6" d="M255.29 200.301l-.879 5.738 6.875.709-2.998-4.288z"/><path clip-path="url(#b)" fill-rule="evenodd" clip-rule="evenodd" fill="#3F8F6F" d="M260.634 185.287l-5.344 15.014 5.996 6.447z"/><path clip-path="url(#b)" fill-rule="evenodd" clip-rule="evenodd" fill="#53AF8A" d="M279.555 177.917l5.712 18.547-23.981 10.284-3.358-27.551 13.67-2.833z"/><path clip-path="url(#b)" fill-rule="evenodd" clip-rule="evenodd" fill="#3F8F6F" d="M278.2 167.446l1.355 10.471-21.627 1.28 5.556-13.908 7.372-.581z"/><path clip-path="url(#b)" fill-rule="evenodd" clip-rule="evenodd" fill="#F5CAB3" d="M280.371 163.338h5.299l3.079 4.108-5.175-.851z"/><path clip-path="url(#b)" fill-rule="evenodd" clip-rule="evenodd" fill="#709D53" d="M288.749 147.48L278.2 167.446l-12.597-4.108-4.317-17.395 4.444-7.905 14.574 6.735z"/><path clip-path="url(#b)" fill="#CFDE5C" d="M284.338 91.199L268 92.224l-6.714 7.032 9.048-1.367zM256.329 121.76l-3.677-10.191 8.634-12.313-1.06 9.392z"/><path clip-path="url(#b)" fill="#9AAE40" d="M292.702 95.975l6.475 4.107-4.24 9.427-1.688-4.072z"/><path clip-path="url(#b)" fill-rule="evenodd" clip-rule="evenodd" fill="#FFE6D6" d="M292.702 95.975l4.556 27.585-27.359 5.419-6.415-6.736z"/><path clip-path="url(#b)" fill-rule="evenodd" clip-rule="evenodd" fill="#F5CAB3" d="M291.166 107.42l-4.704 4.79-.408 2.305-1.05 2.016-1.832-.737-3.102-3.274-4.087-1.514 3.988-3.586 10.778-2.031z"/><path clip-path="url(#b)" fill-rule="evenodd" clip-rule="evenodd" fill="#9AAE40" d="M285.67 106.218l5.079-.829.417 2.031z"/><path clip-path="url(#b)" fill-rule="evenodd" clip-rule="evenodd" fill="#FFF1E8" d="M285.67 106.218l1.166 8.826-3.664.75-1.332-8.91z"/><path clip-path="url(#b)" fill-rule="evenodd" clip-rule="evenodd" fill="#C4937D" d="M286.054 125.779l-8.621 9.081-7.099-5.881z"/><path clip-path="url(#b)" fill-rule="evenodd" clip-rule="evenodd" fill="#F5CAB3" d="M273.632 115.003l2.988 12.645-5.422 1.155-6.105-5.737 8.539-8.063"/><path clip-path="url(#b)" fill-rule="evenodd" clip-rule="evenodd" fill="#FFE6D6" d="M277.433 134.86l11.316 12.62-9.194-.759-2.122-5.736z"/><path clip-path="url(#b)" fill-rule="evenodd" clip-rule="evenodd" fill="#F5CAB3" d="M267.06 155.896l13.311 7.442-.067 2.377-2.104 1.731-14.716-2.157 1.099-5.339z"/><path clip-path="url(#b)" fill-rule="evenodd" clip-rule="evenodd" fill="#FFE6D6" d="M272.134 142.566l-8.65 22.723-2.198-19.346 4.934-6.689 5.914 3.312"/><path clip-path="url(#b)" d="M280.91 112.192c0 .748-.607 1.355-1.355 1.355s-1.355-.607-1.355-1.355.607-1.355 1.355-1.355 1.355.607 1.355 1.355zM287.85 110.545c0 .748.606 1.355 1.355 1.355.748 0 1.355-.607 1.355-1.355s-.607-1.355-1.355-1.355c-.749 0-1.355.607-1.355 1.355z"/><path clip-path="url(#b)" fill="#5A753D" d="M282.238 120.459l3.502-.915 3.564-.151-3.31 2.636z"/><path clip-path="url(#b)" fill="#709D53" d="M282.238 120.459l3.682 1.079 3.384-2.145-3.18 3.496z"/><path clip-path="url(#b)" fill="#ADC54D" d="M272.812 130.319l4.621 4.541 2.122 11.861-13.335-7.467 2.058-4.797z"/><path clip-path="url(#b)" fill="#9AAE40" d="M265.093 123.066l7.719 7.253-11.526 15.624-6.875-12.791 4.821-6.583z"/><path clip-path="url(#b)" fill="#CFDE5C" d="M295.939 93.94l-41.528 39.212 1.918-11.392 14.005-17.978 14.004-12.583 4.867-2.653z"/><path clip-path="url(#b)" fill="#E8F078" d="M284.338 91.199l-23.052 8.057-4.957 22.504 14.244-15.542z"/><path clip-path="url(#b)" fill-rule="evenodd" clip-rule="evenodd" fill="#FFE6D6" d="M280.371 163.338l8.378 4.108-4.189 7.195-6.36-7.195z"/><path clip-path="url(#b)" fill-rule="evenodd" clip-rule="evenodd" fill="#C4937D" d="M283.172 115.794l2.325 1.826 1.339-2.576z"/><path opacity=".1" clip-path="url(#b)" fill-rule="evenodd" clip-rule="evenodd" d="M334.456 206.042l36.469-3.083 43.658 2.574-43.121 3.742z"/><path clip-path="url(#b)" fill-rule="evenodd" clip-rule="evenodd" fill="#53AF8A" d="M379.901 188.807l-1.778 8.362-13.902 2.256-1.244-12.904z"/><path clip-path="url(#b)" fill-rule="evenodd" clip-rule="evenodd" fill="#738D56" d="M364.17 198.943l.034 3.636 18.5 1.888 2.929-1.888-7.738-5.381z"/><path clip-path="url(#b)" fill-rule="evenodd" clip-rule="evenodd" fill="#98C16D" d="M364.204 202.579h21.429v2.514h-21.429z"/><path clip-path="url(#b)" fill-rule="evenodd" clip-rule="evenodd" fill="#35785E" d="M368.994 165.517h16.189l-5.282 23.29-26.833-2.062-7.946-17.728z"/><path clip-path="url(#b)" fill-rule="evenodd" clip-rule="evenodd" fill="#FFE6D6" d="M330.097 142.393l-2.039 9.583.273 1.969-1.149 2.146-2.538 6.985-.491 5.941 6.063 1.699 2.12-3.196 2.12-1.116-1.518-2.861.566-5.145.537-1.607 1.718-1.214 5.964-7.457-4.852-3.945z"/><path clip-path="url(#b)" fill-rule="evenodd" clip-rule="evenodd" fill="#53AF8A" d="M328.058 151.976l7.701 3.601-2.255 2.821-6.322-2.307z"/><path clip-path="url(#b)" fill-rule="evenodd" clip-rule="evenodd" fill="#F5CAB3" d="M333.504 158.398l.952 8.006-4.24 4.312z"/><path clip-path="url(#b)" fill-rule="evenodd" clip-rule="evenodd" fill="#738D56" d="M340.483 124.508l-14.566 15.778 19.205 9.519-1.375-13.583z"/><path clip-path="url(#b)" fill-rule="evenodd" clip-rule="evenodd" fill="#C4937D" d="M405.404 107.541v2.858l-1.973 1.912-4.425-1.313z"/><path clip-path="url(#b)" fill-rule="evenodd" clip-rule="evenodd" fill="#FFE6D6" d="M387.606 110.998l8.89-3.457 1.541 9.374-14.353 9.373.608-7.947z"/><path clip-path="url(#b)" fill-rule="evenodd" clip-rule="evenodd" fill="#FFE6D6" d="M396.496 107.541l13.869-6.27-.829 3.135-8.535 6.477-.593 3.016-2.371 3.016z"/><path clip-path="url(#b)" fill-rule="evenodd" clip-rule="evenodd" fill="#F5CAB3" d="M401.001 110.883l5.216 3.065-.865 1.499-7.315 1.468z"/><path clip-path="url(#b)" fill-rule="evenodd" clip-rule="evenodd" fill="#53AF8A" d="M396.496 107.541l1.541 9.374-3.209 2.096-1.9-10.082z"/><path clip-path="url(#b)" fill-rule="evenodd" clip-rule="evenodd" fill="#738D56" d="M375.12 115.447l12.486-4.449-6.986 27.238-4.749-12.783z"/><path clip-path="url(#b)" fill-rule="evenodd" clip-rule="evenodd" fill="#98C16D" d="M347.123 120.94l-1.384.744-1.715 2.092-3.541.732 4.639 25.297 15.344-1.593 20.154-9.976-5.5-22.789-8.303 1.752-10.379 11.517z"/><path clip-path="url(#b)" fill-rule="evenodd" clip-rule="evenodd" fill="#A0CF7E" d="M345.122 149.805l35.498-11.569 3.672 15.387-13.72 3.158h-25.45z"/><path clip-path="url(#b)" fill-rule="evenodd" clip-rule="evenodd" fill="#709D53" d="M345.122 156.781l39.17-3.158.891 11.894-40.061 3.5z"/><path clip-path="url(#b)" fill-rule="evenodd" clip-rule="evenodd" fill="#3F8F6F" d="M367.197 177.162l-3.698 14.775-8.43-.576-8.348-3.568-1.599-18.776z"/><path clip-path="url(#b)" fill-rule="evenodd" clip-rule="evenodd" fill="#FFE6D6" d="M367.384 78.355l-12.12 6.036-17.033 3.713-.117 25.314 9.011 7.523 4.299 2.039 5.014 5.736 7.982-8.858.385-2.646 5.648-4.048 8.255-2.476z"/><path clip-path="url(#b)" fill-rule="evenodd" clip-rule="evenodd" fill="#F5CAB3" d="M367.015 90.787l-2.546 5.334-5.094 4.306-4.117-2.57-3.455-1.986 7.349-4.513zM334.041 90.787l4.19-2.683 12.247 31.051 5.96 9.561-18.324-15.298-2.627-7.936z"/><path clip-path="url(#b)" fill-rule="evenodd" clip-rule="evenodd" fill="#C4937D" d="M370.453 113.164l-14.015 15.552-5.96-9.561z"/><path clip-path="url(#b)" fill-rule="evenodd" clip-rule="evenodd" fill="#FFF1E8" d="M361.857 90.564l2.948 8.139-5.43 1.724-2.763-8.324z"/><path clip-path="url(#b)" fill-rule="evenodd" clip-rule="evenodd" fill="#EECEB9" d="M374.583 98.911l-9.778-.208-5.43 1.724-12.871 8.8 3.974 9.928 28.23-8.467z"/><path clip-path="url(#b)" fill-rule="evenodd" clip-rule="evenodd" fill="#C4937D" d="M364.805 98.703l-2.191 3.247-3.239-1.523z"/><path clip-path="url(#b)" fill-rule="evenodd" clip-rule="evenodd" fill="#4F5253" d="M356.612 92.103l-4.809 3.768 5.45-1.839zM361.857 90.564l5.158.223-4.538 1.485z"/><path clip-path="url(#b)" fill-rule="evenodd" clip-rule="evenodd" fill="#474747" d="M342.533 99.129l2.725 6.987-2.986 1.425-2.556-4.091-4.229 2.032-1.061-3.205z"/><path clip-path="url(#b)" fill-rule="evenodd" clip-rule="evenodd" fill="#C4937D" d="M338.114 113.418l3.582-1.518v4.509zM341.073 109.934l-1.207-3.311-2.249.293z"/><path clip-path="url(#b)" fill-rule="evenodd" clip-rule="evenodd" fill="#737373" d="M367.384 78.355l-12.12 6.036-8.172-7.966z"/><path clip-path="url(#b)" fill-rule="evenodd" clip-rule="evenodd" fill="#5B5B5B" d="M355.264 84.391l-8.172-7.966-16.876 13.131 8.015-1.452z"/><path clip-path="url(#b)" fill-rule="evenodd" clip-rule="evenodd" fill="#6F7173" d="M340.286 93.373l-7.174 4.932 1.314 3.972 8.107-3.148z"/><path clip-path="url(#b)" fill-rule="evenodd" clip-rule="evenodd" fill="#9AAE40" d="M345.739 121.684l10.385 11.163 10.47-2.098-2.174-10.891 2.397-2.659 2.189 4.077 1.43-4.841 3.891 19.707-20.331 4.144-13.513-15.778 2.246-.221.598-1.307z"/><path clip-path="url(#b)" fill-rule="evenodd" clip-rule="evenodd" fill="#ADC54D" d="M353.996 140.286l1.073-3.901-11.742-13.405-2.844 1.528zM366.817 117.199l3.377 16.06 4.133 2.883-3.891-19.707z"/><path clip-path="url(#b)" fill-rule="evenodd" clip-rule="evenodd" fill="#CFDE5C" d="M366.594 130.749l7.733 5.393-8.029 1.637-2.637-6.442zM359.559 132.159l.87 6.815-6.433 1.312 2.128-7.439zM363.533 138.342l-1.908 4.576 3.334 3.528 1.858-4.542z"/><path clip-path="url(#b)" fill-rule="evenodd" clip-rule="evenodd" fill="#9AAE40" d="M361.625 142.918l5.192-1.014-1.858 4.542z"/><path clip-path="url(#b)" fill-rule="evenodd" clip-rule="evenodd" fill="#F5CAB3" d="M356.438 128.716h4.91l3.072-8.858z"/><path clip-path="url(#b)" fill-rule="evenodd" clip-rule="evenodd" fill="#C4937D" d="M354.775 107.111l15.661-4.529-1.931 6.185-7.943 2.231z"/><path clip-path="url(#b)" fill-rule="evenodd" clip-rule="evenodd" fill="#FFF" d="M357.312 107.363l11.687-3.375-1.375 4.041-6.75 1.897z"/><path clip-path="url(#b)" fill-rule="evenodd" clip-rule="evenodd" fill="#474747" d="M338.231 88.104l-8.015 1.452 2.896 8.749 7.174-4.932z"/><path clip-path="url(#b)" fill-rule="evenodd" clip-rule="evenodd" fill="#53AF8A" d="M361.625 199.425l1.874-7.488-16.778-4.144.88 10.324z"/><path clip-path="url(#b)" fill-rule="evenodd" clip-rule="evenodd" fill="#738D56" d="M361.625 199.425v5.042l-15.949.626 1.925-6.976z"/><path clip-path="url(#b)" fill-rule="evenodd" clip-rule="evenodd" fill="#98C16D" d="M361.625 204.467v3.068h-15.949v-2.442z"/><circle clip-path="url(#b)" fill-rule="evenodd" clip-rule="evenodd" fill="#2B2B2B" cx="365.966" cy="94.834" r="1.41"/><circle clip-path="url(#b)" fill-rule="evenodd" clip-rule="evenodd" fill="#2B2B2B" cx="354.966" cy="98.422" r="1.41"/><g><path opacity=".1" fill-rule="evenodd" clip-rule="evenodd" d="M298.126 299.366l133.236-15.898 103.514 25.024-160.395 7.174z"/><path fill-rule="evenodd" clip-rule="evenodd" fill="#BABABA" d="M359.107 216.237l160.41-10.857-13.352 101.204-131.684 9.082-10.42-52.378z"/><path fill-rule="evenodd" clip-rule="evenodd" fill="#CECECD" d="M360.986 219.685l-7.761-7.726-21.619-7.691-4.783 95.098 47.658 16.3z"/><path fill-rule="evenodd" clip-rule="evenodd" fill="#DDDDDC" d="M360.986 219.685l158.531-14.305-35.544-30.993-152.367 29.881z"/><path fill-rule="evenodd" clip-rule="evenodd" fill="#5B5B5B" d="M385.228 242.91l110.19-10.148.88 8.913-5.493 46.661-104.539 3.758-2.539-42.124z"/><path fill-rule="evenodd" clip-rule="evenodd" fill="#ECECEB" d="M383.727 249.969l112.571-8.294 1.17-9.938-114.29 9.123z"/><path fill="#BABABA" d="M378.513927 262.435024l122.98354-7.76349.12915 2.0459-122.98354 7.76349zM378.4568168 276.4929084l123.193031-3.068427.051045 2.049385-123.193031 3.068427z"/><path fill="#54B08B" d="M406.881 222.428l-5.276 6.443 6.339 3.938 4.522-5.233z"/><path fill="#3F8F6F" d="M401.605 228.871l10.861-1.295-4.625 6.026z"/><path fill="#54B08B" d="M430.715 220.333l-6.948 4.59 4.887 5.639 5.87-3.657z"/><path fill="#3F8F6F" d="M423.767 224.923l10.757 1.982-6.204 4.384z"/><path fill="#54B08B" d="M451.305 218.991l-3.795 7.412 7.028 2.51 3.314-6.07z"/><path fill="#3F8F6F" d="M447.51 226.403l10.342-3.56-3.248 6.867z"/><path fill="#54B08B" d="M477.976 216.237l-5.968 5.806 5.854 4.628 5.084-4.689z"/><path fill="#3F8F6F" d="M472.008 222.043l10.938-.061-5.276 5.465z"/><path fill="#737373" d="M474.236 192.509l11.103 4.814-16.569 5.776-19.473-2.733 11.786-7.133zM435.717 167.734l33.822-8.43v13.902l-3.587 15.24-19.467-3.575z"/><path fill="#9DA1A2" d="M469.539 159.304l26.904 7.241-15.887 18.326-14.604 3.575z"/><path fill="#D9E354" d="M446.485 172.523l22.029-7.259 15.886 7.259-17.423 6.064z"/><path fill="#9DA1A2" d="M435.717 167.734l31.858 7.522 1.964 10.932-1.964 11.135-26.989-2.594z"/><path fill="#858686" d="M467.575 175.256l28.868-8.711-9.994 23.888-18.874 6.89z"/><path fill="#737373" d="M394.124 197.036l-14.861 7.232 17.252 5.685 18.705-6.458z"/><path fill-rule="evenodd" clip-rule="evenodd" fill="#BABABA" d="M360.986 176.537l-25.949-1.025-2.321 7.309z"/><path fill="#737373" d="M332.716 182.821l3.587 5.563 27.758-8.278-3.075-3.569-18.619 2.63z"/><path fill="#5B5B5B" d="M360.986 176.537l33.821-8.879 28.96 4.167-29.985 17.532z"/><path fill="#858686" d="M360.986 176.537l33.138 6.806 3.117 8.053.299 13.297-25.622-5.203z"/><path fill="#737373" d="M394.124 183.343l29.643-11.518-3.679 22.015-22.548 10.853z"/><path fill="#BABABA" d="M360.986 176.537l28.355 1.97 2.868-8.034.167-11.871z"/><path fill="#9DA1A2" d="M392.376 158.602l31.391 13.223-34.426 6.682z"/><path fill="#BABABA" d="M384.292 153.623l8.084-3.566 9.229 6.558-9.396 2.32z"/><path fill="#9DA1A2" d="M391.296 165.685l-6.991-2.471-.013-9.591 8.084 3.698 1.065 2.624z"/><path fill="#858686" d="M391.296 165.685l9.395-3.581.914-5.489-9.229.706z"/></g><g fill-rule="evenodd" clip-rule="evenodd"><path opacity=".1" d="M635.241 302.001l125.345-17.423L887 305.515l-103.805 23.133-121.218-21.181z"/><path fill="#DDDDDC" d="M671.357 167.057l77.208-26.479 85.578 34.506-53.294 20.422z"/><path fill="#BABABA" d="M671.357 167.057l-9.38 140.41 123.997 11.416 3.074-74.666-8.199-55.247z"/><path fill="#A3A3A3" d="M780.849 188.97l53.294-13.886 3.075 126.917-51.244 16.882z"/><path fill="#5B5B5B" d="M691.171 223.895l7.021-6.13 36.537-12.126 10.761 31.452v12.847l-2.049 11.753-8.121 12.774-6.569 6.013-29.085-1.244z"/><path fill="#858686" d="M698.192 217.765l-9.07 3.01 8.711 61.07 6.662-7.345 2.05-5.062z"/><path fill="#DDDDDC" d="M735.32 274.466l-28.775-5.028-8.712 12.407h32.797z"/><path opacity=".1" d="M743.441 261.691l9.309 11.58-2.349 15.748-2.306 6.833 37.879 23.031 11.273-11.416-5.124-15.373 1.367-19.132-26.306 7.516-14.434-21.426zM767.526 253.831l15.669-5.402-7.214-16.213zM770.728 202.031l-7.985 17.381-12.299-17.99z"/><path fill="#709D53" d="M745.49 237.091l7.26.795-.769 14.066-2.135 11.359-6.405-1.62z"/><path fill="#98C16D" d="M773.163 216.103l15.885-3.947 27.16 32.385-7.174 3.888-5.125-1.42-16.101-11.15z"/><path fill="#709D53" d="M816.208 244.541l-15.886 51.311-15.014 6.149 8.182-29.039 10.419-25.953zM773.163 232.216l7.686 7.608-13.323 14.007-3.758 2.112-4.442-2.112 10.762-21.615z"/><path fill="#98C16D" d="M767.526 253.831l10.249 21.81-14.349 8.937-4.1-30.747z"/><path fill="#BFDB8E" d="M773.163 216.103l-20.412 21.784-4.981 29.189 2.633 21.944 34.906 12.982 18.601-54.992-30.747-30.907zm-5.979 64.375l-7.858-26.647 13.836-21.615 10.451 26.836-16.429 21.426z"/><path fill="#99C26D" d="M760.351 193.704l9.166 8.826-9.166 10.476-9.907-11.584z"/><path fill="#D9E354" d="M756.252 201.875l3.245-2.875 3.246 2.875-3.246 5.323z"/><path fill="#709D53" d="M760.351 193.704l2.392-.768 7.985 9.095-1.211 1.068-.966-.171z"/><path fill="#738D56" d="M770.728 202.031l-6.149 9.481-4.228 1.494 8.2-10.078z"/><path fill="#858686" d="M728.836 187.535l21.608 3.929-.726 4.802-20.882-4.365z"/><path fill="#BFDB8E" d="M677.848 177.562l19.985 4.612-1.281 19.248-20.37-4.089z"/></g><g fill-rule="evenodd" clip-rule="evenodd"><path opacity=".1" d="M316.939 341.288l66.788-11.957 79.421 12.726L379.605 350z"/><path fill="#54B08B" d="M413.771 336.164l9.996 7.687h-11.301l-.299-4.612z"/><path fill="#35785D" d="M393.441 325.195l6.847 12.49 9.661.374-6.77-12.864z"/><path fill="#3F8F6F" d="M318.58 303.733l-9.165 19.791 15.048-5.666-1.911-6.997z"/><path fill="#72C9A6" d="M337.999 312.591l-19.419-8.858 8.243 19.791 7.772-5.808z"/><path fill="#35785D" d="M336.792 331.627l6.844 7.472h6.43l-3.215-11.476h-4.662z"/><path fill="#3F8F6F" d="M364.061 334.347l6.847 9.504h-9.922l-3.43-4.612 2.917-3.502z"/><path fill="#54B08B" d="M405.118 294.774l-1.939-16.854 6.733 8.107z"/><path fill="#3F8F6F" d="M346.851 327.623l-10.059 4.004 4.657-16.986 12.96-3.78z"/><path fill="#54B08B" d="M357.556 293.46l-30.733 30.064 23.829-2.833z"/><path fill="#3F8F6F" d="M401.655 326.111l10.811 17.74 2.754-16.228-6.275-2.428z"/><path fill="#5A753D" d="M435.865 303.026l-2.795 38.262 4.783 2.563 2.47-42.1z"/><path fill="#738D56" d="M444.528 301.751h-3.216l-2.605.857 2.392 33.556 14.69-8.541-11.261-25.872zm-1.551 6.058l8.028 17.386-6.833 4.136-1.195-21.522z"/><path fill="#54B08B" d="M419.049 291.069l33.024-10.633-.949 10.633-1.328 9.907-13.931 2.05-3.991 3.715-2.585 4.12-6.706 7.989-4.466 3.287-2.897 5.486-36.768-4.099-9.523-11.189-11.373-18.875 48.034 3.758z"/><path fill="#72C9A6" d="M357.556 293.46l-10.705 34.163 11.231 10.249 20.37-14.348z"/><path fill="#54B08B" d="M346.851 327.623l31.601-4.099-20.896 15.715z"/><path fill="#35785D" d="M435.865 303.026l-9.115.512 2.538 7.323z"/><path fill="#72C9A6" d="M357.556 293.46l54.611 11.031 40.514-25.038-47.563 15.321z"/><path fill="#BFDB8E" d="M405.118 294.774l17.465 24.076-7.363 8.773-18.448-33.08z"/><path fill="#72C9A6" d="M405.118 294.774l8.277-19.157-1.228 28.874z"/><path fill="#3F8F6F" d="M413.395 275.617l5.654 14.732-6.882 14.142z"/><circle fill="#2B2B2B" cx="426.842" cy="294.143" r="3.075"/><path fill="#99C26D" d="M440.323 283.468l10.801 7.601 1.557-11.616z"/></g><g fill-rule="evenodd" clip-rule="evenodd"><path fill="#FFE6D6" d="M653.599 192.281l17.758 32.578-19.132 4.204-22.354-16.907 6.639-12.132z"/><path fill="#738D56" d="M626.082 161.42l33.612 31.089-29.823 19.647-3.789-23.747z"/><path opacity=".1" d="M668.438 352.883l-90.346-12.441-87.799 12.299 96.348 18.448z"/><path fill="#98C16D" d="M607.862 153.081l5.999 3.876 6.387 1.442 5.834 3.021 4.554 60.981-84.819 2.458-2.29-64.504 12.373-2.965 7.166-.379 6.843-2.978 19.114 17.801z"/><path fill="#A0CF7E" d="M564.749 215.24l-16.648-15.251-4.574 32.227h87.109l-.765-20.06z"/><path fill="#FFE6D6" d="M555.494 64.029l29.26 6.859 36.225 8.834 5.103 55.219-18.225 18.142-8.991 5.273-9.843 13.478-19.114-17.801-1.346-5.701-13.103-7.754-16.997-4.572 5.256-25.741z"/><path fill="#F5CAB3" d="M558.679 91.088l6.578 11.153 11.941 8.42 8.491-6.396 7.161-4.994-16.903-8.443zM630.636 84.775l-9.657-5.053-20.78 70.105-11.176 22.007 37.059-36.893 4.214-17.821z"/><path fill="#C4937D" d="M555.46 140.578l33.563 31.256 11.176-22.007z"/><path fill="#FFF1E8" d="M569.892 89.614l-4.873 18.325 12.179 2.722 4.436-18.694z"/><path fill="#EECEB9" d="M543.719 110.265l21.3-2.326 12.179 2.722 29.773 16.741-6.772 22.425-63.226-13.071z"/><path fill="#C4937D" d="M565.019 107.939l5.401 6.668 6.778-3.946z"/><path fill="#4F5253" d="M581.634 91.967l11.216 7.304-12.246-2.971zM569.892 89.614l-11.213 1.474 10.189 2.372z"/><path fill="#474747" d="M613.703 104.604l-4.609 15.77 6.789 2.539 4.794-9.417 9.619 3.624 1.702-7.197-8.719-5.319z"/><path fill="#C4937D" d="M626.082 134.941l-8.109-2.626.864 9.84zM618.957 127.906l2.001-7.457 4.964.208z"/><path fill="#737373" d="M555.494 64.029l27.604 10.852 10.709-7.262 5.599-11.688z"/><path fill="#5B5B5B" d="M583.098 74.881l16.308-18.95 39.343 25.425-10.096.837-7.674-2.471z"/><path fill="#6F7173" d="M617.504 91.613l9.041 1.847 7.559 7.544-2.106 8.919-18.295-5.319z"/><path fill="#9AAE40" d="M607.862 153.081l-6.71 26.275-23.954 1.708-7.289-27.031-6.682 1.601-3.055 2.37-4.274-.614 13 37.143 40.932-3.069 10.418-33.065-6.041.203v-2.797z"/><path fill="#ADC54D" d="M609.83 191.464l-4.452-6.211 8.829-29.448 6.041 2.594zM563.226 155.634l9.984 31.901-4.312 6.998-13-37.143z"/><path fill="#CFDE5C" d="M577.198 181.064l-8.3 13.469 15.696-1.177v-12.819zM592.85 179.948l2.555 12.597 14.425-1.081-8.678-12.108zM590.105 192.908l6.744 8.514-4.932 9.421-6.619-8.472z"/><path fill="#9AAE40" d="M596.849 201.422l-11.551.949 6.619 8.472z"/><path fill="#F5CAB3" d="M589.023 171.834l-10.715.94-8.399-18.741z"/><path fill="#C4937D" d="M580.491 127.434l-21.402-5.985-.492 5.564 19.625 7.632z"/><path fill="#474747" d="M620.979 79.722l17.77 1.634-4.645 19.648-16.6-9.391z"/><path fill="#F5CAB3" d="M556.877 195.506l3.279 7.422-5.421 11.349-10.546 13.276-13.557-27.564 11.404-4.483z"/><path fill="#F5CAB3" d="M560.156 202.928l5.692 14.837 2.08 9.788h-23.739z"/><path fill="#738D56" d="M543.527 160.355l-21.777 41.676 35.127-6.525z"/><path fill="#709D53" d="M543.527 232.216h87.109l-4.554 21.615-84.046-10.808z"/><path fill="#35785E" d="M626.082 253.831l-25.883 11.957-24.434 3.075-16.712-7.858-17.017-17.982z"/><path fill="#3F8F6F" d="M626.082 253.831l-6.332 29.919-17.204 15.86-19.796-8.735-6.985-22.012z"/><path fill="#53AF8A" d="M582.75 290.875l37-7.125-3.908 21.765-10.464 8.101-18.003-5.991z"/><path fill="#738D56" d="M615.842 305.515l6.325 13.986-15.196 2.215-21.638-2.548 2.042-11.543z"/><path fill="#98C16D" d="M622.167 319.501v5.666l-36.834-.334v-5.665z"/><path fill="#3F8F6F" d="M575.765 268.863l-14.242 26.989-14.745-6.833-10.83-11.786 6.088-34.21z"/><path fill="#53AF8A" d="M535.948 277.233l-3.365 23.184 10.944.901 14.579.683 3.417-6.149z"/><path fill="#738D56" d="M558.106 302.001l-.731 13.475-16.794 4.399-24.495-4.55 16.497-14.908z"/><path fill="#98C16D" d="M557.375 315.476v6.149l-41.289.091v-6.391z"/><path fill="#3F8F6F" d="M573.21 187.535l-16.333 26.742 24.384-6.301z"/><path fill="#545454" d="M524.285 224.478l104.041-33.014 3.572 21.542v24.085l-56.133 10.27z"/><path opacity=".1" d="M556.877 214.277l11.051 13.276 18.799-2.442-6.236-18.468z"/><path fill="#666" d="M628.326 191.464l50.547 24.639-46.975 20.988z"/><path fill="#9DA1A2" d="M524.285 224.478l8.797 36.1 45.516 17.338.868-14.775-3.701-15.78z"/><path fill="#828282" d="M578.598 277.916l87.207-19.44 13.068-42.373-103.108 31.258z"/><path opacity=".2" d="M631.998 230.313l-18.295 5.546-32.442 20.084 7.656 19.673 3.061-8.803 23.589 2.862 14.305-3.189-4.769-24.089 6.895-12.084z"/><path fill="#98C16D" d="M622.439 233.211l1.465 62.641 36.008-11.274-18.736-57.047z"/><path fill="#FDE9E0" d="M601.69 101.156l-4.916 7.771 6.85 1.453z"/><path fill="#F5CAB3" d="M603.624 110.38l-5.142 4.343-1.708-5.796z"/><path fill="#FDE9E0" d="M596.739 79.991l-4.916 7.77 6.851 1.454z"/><path fill="#F5CAB3" d="M598.674 89.215l-5.143 4.343-1.708-5.797z"/><path fill="#FDE9E0" d="M556.877 79.722l.717 7.052-5.718-2.05z"/><path fill="#F5CAB3" d="M551.876 84.724l1.789 5.639 3.929-3.589z"/><path fill="#3F8F6F" d="M653.08 223.922l-8.2-14.905-48.031-7.595 16.854 34.437z"/><path fill="#54B08B" d="M653.08 223.922l-56.231-22.5-15.588 11.182-44.645-.448 7.573 7.256 15.967 8.331 15.609 19.618z"/><path fill="#709D53" d="M576.214 200.708l-18.108 11.315 2.05 15.72 26.571-2.632z"/><path fill="#72C9A6" d="M609.639 237.091l.191-39.758-36.62-9.798 12.925 56.682zM560.156 227.743l-23.54-15.587-19.85 12.322 7.519 17.022 6.347 9.024z"/><path fill="#3F8F6F" d="M530.632 250.524l-13.866-26.046L508 245.94l22.632 20.106z"/><path fill="#709D53" d="M519.844 270.913l20.737-39.191 38.504-7.827 7.05 20.322-10.37 3.144-6.867 25.601z"/><path fill="#98C16D" d="M540.581 231.722l28.963-5.887 19.373 49.781-27.394 20.236z"/><path opacity=".1" d="M560.156 227.743l-4.097 30.724 29.134 7.579-15.649-40.211z"/><path fill="#BFDB8E" d="M560.156 227.743l25.142-20.545 46.7 23.115-18.295 12.71-27.205-5.137z"/><path fill="#709D53" d="M613.703 243.023l-3.873 18.316-48.196-7.508-1.478-26.088z"/><path fill="#F5CAB3" d="M675.871 225.835l3.002 18.382-10.435 5.721-3.06-12.052 3.06-12.051z"/><path fill="#FFE6D6" d="M668.438 249.938l-12.921-6.915 4.143-18.336 8.778 1.148z"/><circle fill="#2B2B2B" cx="561.521" cy="99.729" r="3.125"/><circle fill="#2B2B2B" cx="586.458" cy="105.354" r="3.125"/></g></svg>