<svg xmlns="http://www.w3.org/2000/svg" viewBox="0 0 900 350"><g fill-rule="evenodd" clip-rule="evenodd"><path fill="#99C26D" d="M304 326l14.25 24 438.036-46.667L637 247l-25.014-11.333-333.736 44.674z"/><path fill="#BFDB8E" d="M318.25 350l42.25-4.501-64.856-67.486-17.394 2.328zM756.286 303.333l-144.3-67.666-19.688 3.193 121.979 68.949zM570.709 286.045l-10.376-4.545 14.787-6.282 6.074 6.282 11.104-3.5 13.231 5-13.231 4.667 14.255 6.666-14.255 6.334-6.737-4.667-4.367 6.667L568.971 301l3.864-6.667-10.938 2-5.534-8.666zM641.986 315.51L637 310.667h13.02l-6.51-6.333 9.157-6 6.993 6.333S663.555 294 664.111 295s15.361 4.667 15.361 4.667l-8.611 6.442 11.765-.886 5.792 5.342-46.432 4.945zM537.385 326.654l3.294-6.987-13.012-2 6.506-8.667h-17.182v6.51l-9.324-3.51-12.417 5.827L506 322l-9.417 4 6.392 4.32zM437.32 318.76h15.666l1.667-8.334h-15l10.667-5.333-15.667-4.5-4.045 6.833-7.955-4.732-11.333 5.066 9.333 5.222-11.333.886 4.666 7.898h11.334l-1.667 5.654 18.333-1.66zM376.655 300.45l7.095-5.516-15.412-3.601-1.338 7-8.433-3.399-10.988 5.516 10.671 2.217-10.671 8.127 10.671 4.716 7.414-3.51-1.664 7.66 15.729-4.15-6.062-6.51 10.083 1.667 3.583-9.334zM474.214 274L487 278.013l.125-9.263L506 270.333l-9.417 7.68L509 275.5l3.125 9-15.542-.159 9.417 7.601-13.875 2.992-3.625-5.992-5 5.992-11.833-3.601 10-5.288L469 284.341zM447.491 257.686l6.085 2.477-10.621 3.916 14 3.917-11.333 7.68-8-5.847v9.676h-14.334l4-8.842-8.765 5.013-8.901-5.013L422 264.667l-10-2.23z"/><path fill="#99C26D" d="M486.75 281.842l5.375-2.337 1.875 2.337-4.018 2.499zM428.75 262.5l4.538-2.168 3.462 2.168-5.75 2.167zM365.958 302.667h4.348l-1.968 4.083-5.798-1.528zM428.75 313l4.538-2.5 3.462 3.506-9 1.504zM514.5 323.25l5.668-3.59 3.725 3.59-5.928 2.75zM576.75 288.942l4.444-2.897 4.367 1.449-5.16 3.839zM659.064 313.691l3.644-4.691 5.704 3.695z"/></g><g fill-rule="evenodd" clip-rule="evenodd"><path fill="#DDDDDC" d="M291.667 108.5l-37.089-45.112L328 .417l210.116 16 8.384 50.5-11.485 28.375 10.959 15.09-18.307 2-24.039 63.885-41.642 6.303-52.238-7.57-27.733-.382z"/><circle fill="#FFF" cx="422.942" cy="99.677" r="28.755"/><path fill="#709D53" d="M522.134 127.087l-9.634-17.73-8 4.851-14.518-1.337-14.447 3.871 29.48 28.702 11.503-3.432zM383.249 112.871l-9.233-7.661-12.266.957-12-7.805-5.208-9.57-18.209-4.495-6.791 9.036-25.167-7.592-12.125 11.305 9.417 11.454L367 122z"/><path fill="#99C26D" d="M522.134 127.087l-10.009-9.247-24.519 10.655-12.071-11.753 11.447-7.617 18.033 1.25 7.11-6.641 15.542 8.648zM282.25 97.046l16.719-8.254 15.781 6.742 32.815 5.024 7.216 11.834 28.468.479-8.624-9.835-12.058.698-11.817-7.156-5.083-16.245-22.37 1.87-5.047 8.424-24.281-9.61-20.219 5.691z"/><path fill="#54B08B" d="M509.367 143.627l-77.887-40.972-43.98 15.013L367 122l-43.042 33.942 58.057 18.676 27.494 2.696 93.466-14.277z"/><path fill="#3F8F6F" d="M431.48 102.655l17.451 16.02 26.084 26.769-32.515-7.567-13.75-15.618L415.015 124l-5.506 53.314 52.477 5.256 41.642-6.303 12.89-34.255-40.978-25.267zM382.015 174.618l19.971-46.123-16.971 7.388-13.515 22.059-4.956 12.922z"/><path fill="#72C9A6" d="M383.249 112.871l48.231-10.216 23.173 7.474-5.722 8.546-20.181 3.584L415.015 124l-13.029 4.495-16.971 7.388L367 122z"/><path fill="#54B08B" d="M448.931 118.675l-17.451-16.02 44.055 14.087zM401.986 128.495L412 106.781l-16 10.857-10.985 18.245zM415.015 124l5.809-19.088 2.341-.496 5.585 17.843z"/><path fill="#CECECD" d="M297.782 26.333L320.25 22 338 31.753l22.021 3.205-20.813 3.944-20.958 4.671-41.254.588z"/><path fill="#ECECEB" d="M360.021 34.958L346 26.333 320.25 22H303l-12.504 10.583 28.012 3.624z"/><path fill="#CECECD" d="M471.75 62h20.375l31.768 11.017 22.607-6.1-6.611 16.333-19.721 1.5-29.751-8.548z"/><path fill="#ECECEB" d="M471.75 62l18.232 7.25 33.911 3.767 22.607-6.1-18.833-6.25L492.125 62z"/><path fill="#CECECD" d="M339.208 70.922l16.073 8.511 16.219-4.256 19-2.16-26.5-6.175z"/><path fill="#ECECEB" d="M390.5 73.017l-6.75-9.267-34 2.75-10.542 4.422h25.614z"/></g><path opacity=".2" fill="#2B2B2B" d="M866.333 156.933l-21.666 8.572 17.416 54.996H900L884 159.5z"/><path opacity=".1" fill="#2B2B2B" d="M900 220.501h-37.917L720 225l-18.621 3.762L720 234.65l104.5 6.112 54.5-7.512z"/><path fill-rule="evenodd" clip-rule="evenodd" fill="#939393" d="M721.064 172.699L720 234.65l104.5 6.112 2-60.738z"/><path fill-rule="evenodd" clip-rule="evenodd" fill="#7A7A7A" d="M819.5 180.024l43-14.519-.417 54.996-37.583 20.261z"/><path fill-rule="evenodd" clip-rule="evenodd" fill="#C4C4C4" d="M760.5 142.706l108.5 6.54-38.5 21.915-114.919-11.719z"/><path fill-rule="evenodd" clip-rule="evenodd" fill="#A3A3A3" d="M830.5 169.161l2 6.839-2 7.667-112.189-8.084-2.73-16.141z"/><path fill-rule="evenodd" clip-rule="evenodd" fill="#858686" d="M869 149.246l1 16.791-39.5 17.63v-14.506z"/><path fill-rule="evenodd" clip-rule="evenodd" fill="#C4C4C4" d="M729 181.983l38.75 5.253 1 41.526-42.686-2.479zM776.25 187.661h36l2.75 42.97-40-1.869z"/><path opacity=".1" fill="#2B2B2B" d="M788 199.586l-4 11.492-4-11.267zM762.75 198.26L759 209.465 755.25 198z"/><path fill-rule="evenodd" clip-rule="evenodd" fill="#939393" d="M755.25 198l4.25-4.667 3.25 4.927-3.75 4.99zM780 199.811l4-4.788 4 4.563-4.5 4.664z"/><path opacity=".1" fill-rule="evenodd" clip-rule="evenodd" d="M782.158 151.062l-15.658 5.871 33.5 6.418 29.333-9.04-30.166-7.065z"/><path fill-rule="evenodd" clip-rule="evenodd" fill="#738D56" d="M780 130.638l13.29-3.888 19.21.254-13 6.329z"/><path fill-rule="evenodd" clip-rule="evenodd" fill="#9DC268" d="M780 130.638l4 6.855-10 13.257 4.25 8.183 22.5 1.317 2.5-8.421-7.25-14.336 3.5-5.16z"/><path fill-rule="evenodd" clip-rule="evenodd" fill="#749D4F" d="M799.5 132.333l13-5.329-4.75 8.879 8.262 10.169-3.762 6.901-11.5 7.297 1.5-8.421-7.25-14.336z"/><path opacity=".1" fill-rule="evenodd" clip-rule="evenodd" d="M784 137.493h11l12.75-1.61 4.75-8.879-13 5.329-19.5-1.695zM774 150.75l28.25 1.079 13.762-5.777-3.762 6.901-11.5 7.297-22.5-1.317z"/><path fill-rule="evenodd" clip-rule="evenodd" fill="#54B08B" d="M802.439 131.129l1.979-8.619 5.687-2.986-4.599 10.518z"/><path fill-rule="evenodd" clip-rule="evenodd" fill="#B8C745" d="M804.418 122.51l1.088 7.532 9.15-1.617 1.356-4.425h5.613l-.75-6.517-4.863-3.733-.743-3.998-8.054-1.357-3.523 1.299-6.099-4.056-4.218 5.328 2.964 4.009-3.48 3.274 7.699 4.514z"/><path fill-rule="evenodd" clip-rule="evenodd" fill="#749D4F" d="M804.418 114.707l5.81.277 3.21 3.793-6.315-.717z"/><path fill-rule="evenodd" clip-rule="evenodd" fill="#54B08B" d="M792.29 131.706l1.313-26.28 3.807-.834-2.819 27.315z"/><path fill-rule="evenodd" clip-rule="evenodd" fill="#E8F078" d="M793.375 109.481l3.195 3.39 10.645-4.476.285-3.98 6.229-1.816-5.171-5.199-7.308-.733-2.921-3.089h-6.632l-3.447 3.172-7.794-.025-2.698 7.195 5.909 1.718-.812 3.893 7.043 1.785z"/><path fill-rule="evenodd" clip-rule="evenodd" fill="#9DC268" d="M790.29 102.392l5.453-2.024 4.441 2.231-6.091 1.816z"/><path fill-rule="evenodd" clip-rule="evenodd" fill="#54B08B" d="M792.29 131.706l-6.54-11.373-4.25.917 7.125 10.138z"/><path fill-rule="evenodd" clip-rule="evenodd" fill="#B8C745" d="M788.625 119.917l4.234.416-3.526-6.25-4.5-.5-1.978-4.052-7.022.552-1.083 2.788H770l-3.5 4.612 4.333 1.294-1 3.223 5.696 2.347 3.304-1.847 1.5 2.603 7.009-2.001z"/><path fill-rule="evenodd" clip-rule="evenodd" fill="#749D4F" d="M775.561 116.32l4.586-1.696 3.52 1.696-4.693 1.929z"/><g fill-rule="evenodd" clip-rule="evenodd"><path opacity=".1" d="M794.11 247.111l-18.279-4.236-72.907-5.029-.495.212L637 212.722 458.5 235.75l38.083 26.75 117.331 19 64.907-30.552 64.846 9.384z"/><path fill="#709D53" d="M746.75 84.868v27.524h-3.512l.429-28.978z"/><path fill="#9DC268" d="M740.308 110.966h9.942L748.797 124l-7.489-1.25z"/><path fill="#BFDB8E" d="M702.924 237.846L739 231.65l35 6.196-30.333 14.279z"/><path fill="#99C26D" d="M702.924 237.846l-1.545 9.265 42.288 13.221 1-6.332-1-3.875z"/><path fill="#709D53" d="M774 237.846l3.333 9.154-33.666 13.332v-10.207z"/><path fill="#3F8F6F" d="M729 240.887l13 .71L743.238 207 742 198.811l-7.667-.811z"/><path fill="#54B08B" d="M743.667 195.023L720 170.161l-4.333 8.464 8.958 10.515L743.238 207z"/><path fill="#3F8F6F" d="M720.844 185.5l17.618-100.632h-15.439l-9.356 93.757z"/><path fill="#35785D" d="M722.671 88.395h7.496l7.531 2.232-3.545 18.854-12.431-11.578z"/><path fill="#BFDB8E" d="M726.064 16L706 26.333l28.333 6 20-15.333z"/><path fill="#99C26D" d="M706 26.333l-7.076 58.535 38.774 5.759-.434-33.622-3.931-26.672z"/><path fill="#709D53" d="M733.333 30.333l21-13.333 17 55.421-33.635 18.206z"/><path fill="#C1DB8A" d="M699.972 76.202l36.942 3.601.784 10.824-38.774-5.759z"/><path fill="#99C26D" d="M736.914 79.803l31.521-16.831 2.898 9.449-33.635 18.206z"/><path fill="#BFDB8E" d="M722.605 28.763l-2.455 49.406-5.873-.573 3.36-49.56z"/><path fill="#99C26D" d="M745.352 22.703l10.934 46.756-4.995 2.361-9.983-46.55z"/><path fill="#709D53" d="M719.167 24.167l9.166-5 12.975 1.333-9.308 5z"/></g><g><path opacity=".2" fill="#2B2B2B" d="M37.593 76.33L14 78.956.083 220.501H30l18.5-81.834z"/><path opacity=".1" fill="#2B2B2B" d="M30 220.501H.083l105.091 36.723L248 226.506z"/><path fill-rule="evenodd" clip-rule="evenodd" fill="#C4C4C4" d="M63 66.5l-24.5-7.399L182.5 42l51.917 11z"/><path fill-rule="evenodd" clip-rule="evenodd" fill="#858686" d="M63 64.5l-24.5-5.399-8.5 161.4 42.466 24.992V142.012z"/><path fill-rule="evenodd" clip-rule="evenodd" fill="#A3A3A3" d="M63 64.5L234.417 53 248 226.506 72.466 245.493z"/><path fill-rule="evenodd" clip-rule="evenodd" fill="#777" d="M81 81.333L223 66.5l3.333 41.692L81 122.259z"/><path fill-rule="evenodd" clip-rule="evenodd" fill="#C4C4C4" d="M226.333 108.192l-36-10.192L81 107.036v15.223z"/><path fill-rule="evenodd" clip-rule="evenodd" fill="#777" d="M79.667 135.913l146.666-14.373 3.334 41.083-146 10.608z"/><path fill-rule="evenodd" clip-rule="evenodd" fill="#C4C4C4" d="M229.667 162.623l-43.334-11.474-104.027 9.391 1.361 12.691z"/><path fill-rule="evenodd" clip-rule="evenodd" fill="#777" d="M82.306 186.941L231.667 175l2.75 40.914-152.111 13.22z"/><path fill-rule="evenodd" clip-rule="evenodd" fill="#C4C4C4" d="M234.417 215.914l-37.084-15.029-115.027 11.837v16.412zM205 76.75l-20.5-2.25-12.5 1.75 20.5 5.5z"/><path fill-rule="evenodd" clip-rule="evenodd" fill="#5C753A" d="M192.5 79.75l-20.5-3.5 2 27.75 19.5 4.25 3.25-18z"/><path fill-rule="evenodd" clip-rule="evenodd" fill="#749D4F" d="M203.5 107.036L205 76.75l-12.5 3 1 28.5z"/><path fill-rule="evenodd" clip-rule="evenodd" fill="#C4C4C4" d="M181.375 80.875l-18.5-2.25-10.5.75 16.5 4.5z"/><path fill-rule="evenodd" clip-rule="evenodd" fill="#3F785C" d="M168.875 81.875l-16.5-2.5v26.75l17.5 4.25 3.25-18z"/><path fill-rule="evenodd" clip-rule="evenodd" fill="#539E77" d="M182.875 109.161l-1.5-28.286-12.5 1 1 28.5z"/><path fill-rule="evenodd" clip-rule="evenodd" fill="#C4C4C4" d="M158.237 78.956l-20.445-3.555-8.893.929 16.838 4.545z"/><path fill-rule="evenodd" clip-rule="evenodd" fill="#758D53" d="M145.737 79.625l-16.838-3.295 3.338 30.545 14.5 4.25 3.25-18z"/><path fill-rule="evenodd" clip-rule="evenodd" fill="#9DC268" d="M157.737 109.911l.5-30.955-12.5.669 1 31.5z"/><path fill-rule="evenodd" clip-rule="evenodd" fill="#C4C4C4" d="M141.958 83.875l-17.291-4.5-8.018 1.5 15.559 3.875z"/><path fill-rule="evenodd" clip-rule="evenodd" fill="#3F785C" d="M132.208 84.75l-15.559-3.875v27.375l15.559 6 1.625-18.625z"/><path fill-rule="evenodd" clip-rule="evenodd" fill="#539E77" d="M141.958 113.036V83.875l-9.75.875v29.5z"/><path fill-rule="evenodd" clip-rule="evenodd" fill="#C4C4C4" d="M126.363 85.063l-17.292-4.5-8.017 1.5 15.559 3.875z"/><path fill-rule="evenodd" clip-rule="evenodd" fill="#3F785C" d="M116.613 85.938l-15.559-3.875v27.375l15.559 6 1.625-18.625z"/><path fill-rule="evenodd" clip-rule="evenodd" fill="#539E77" d="M126.363 114.224V85.063l-9.75.875v29.5z"/><path fill-rule="evenodd" clip-rule="evenodd" fill="#C4C4C4" d="M111.863 86.125l-17.292-4.5-8.017 1.5L102.113 87z"/><path fill-rule="evenodd" clip-rule="evenodd" fill="#5E7537" d="M102.113 87l-15.559-3.875V110.5l15.559 6 1.625-18.625z"/><path fill-rule="evenodd" clip-rule="evenodd" fill="#789D4A" d="M111.863 115.286V86.125l-9.75.875v29.5z"/><path fill-rule="evenodd" clip-rule="evenodd" fill="#C4C4C4" d="M182.875 128.333l21.125 4.5-13.667 3.667-19.583-7.333z"/><path fill-rule="evenodd" clip-rule="evenodd" fill="#5C753A" d="M190.333 134.5l2.167 9.766-2.167 16.426-19.583-4.75v-26.775z"/><path fill-rule="evenodd" clip-rule="evenodd" fill="#749D4F" d="M190.333 134.5L204 132.833l-.5 26.609-13.167 1.25z"/><path fill-rule="evenodd" clip-rule="evenodd" fill="#C4C4C4" d="M166.167 133.5l19.166 4.377-9.458 3.123-17.513-7z"/><path fill-rule="evenodd" clip-rule="evenodd" fill="#758D53" d="M175.875 139l.792 8.895-1.834 12.797-14.666-4.025L158.362 134z"/><path fill-rule="evenodd" clip-rule="evenodd" fill="#9DC268" d="M185.333 137.877l-.958 21.37-9.542 1.445L175.875 139z"/><path fill-rule="evenodd" clip-rule="evenodd" fill="#C4C4C4" d="M137.083 132.133l9.75-.686 14.834 7.22-13.292 3.166z"/><path fill-rule="evenodd" clip-rule="evenodd" fill="#3F785C" d="M137.083 132.133l.624 25.056 11.626 5.848.654-15.691-1.612-7.513z"/><path fill-rule="evenodd" clip-rule="evenodd" fill="#539E77" d="M161.667 138.667v23.125l-12.334 1.245-.958-23.204z"/><path fill-rule="evenodd" clip-rule="evenodd" fill="#C4C4C4" d="M118.238 132.133l7.003-.686 11.842 3.053-9.422 2.833z"/><path fill-rule="evenodd" clip-rule="evenodd" fill="#3F785C" d="M127.661 135.333l1.238 9.596-2.536 18.108-9.714-5.597 1.589-25.307z"/><path fill-rule="evenodd" clip-rule="evenodd" fill="#539E77" d="M137.083 134.5l.75 27.292-11.47 1.245 1.298-27.704z"/><path fill-rule="evenodd" clip-rule="evenodd" fill="#C4C4C4" d="M113.84 132.564l10.493 5.313-9.666 2.79-9.493-7.254z"/><path fill-rule="evenodd" clip-rule="evenodd" fill="#4B8F6E" d="M114.667 138.667l1 11.333-1 13.037-9.493-4.561v-25.063z"/><path fill-rule="evenodd" clip-rule="evenodd" fill="#70B793" d="M124.333 137.877l-.131 23.915-9.535 1.245v-24.37z"/><path fill-rule="evenodd" clip-rule="evenodd" fill="#C4C4C4" d="M99.667 137.333L111.863 143l-12.196 3.167-10.5-8.29z"/><path fill-rule="evenodd" clip-rule="evenodd" fill="#758D53" d="M99.667 144.167l.848 8.13-.848 13.208-10.5-6.005v-21.623z"/><path fill-rule="evenodd" clip-rule="evenodd" fill="#9DC268" d="M111.863 143v21.282l-12.196 1.223v-21.338z"/><path fill-rule="evenodd" clip-rule="evenodd" fill="#C4C4C4" d="M155.987 184.667l10.68-1 15.166 6.666-11.083 2z"/><path fill-rule="evenodd" clip-rule="evenodd" fill="#5C753A" d="M170.75 191.333l1.25 9.552-.153 14.125-15.86-6.932v-23.411z"/><path fill-rule="evenodd" clip-rule="evenodd" fill="#749D4F" d="M170.75 191.333l11.083-1v23.334l-9.986 1.343z"/><path fill-rule="evenodd" clip-rule="evenodd" fill="#C4C4C4" d="M151.083 187.167l12.91 6.833-6.455 2-11.801-8z"/><path fill-rule="evenodd" clip-rule="evenodd" fill="#3F785C" d="M157.538 195l.656 11.323-1.361 11.857-11.096-7.013V188z"/><path fill-rule="evenodd" clip-rule="evenodd" fill="#539E77" d="M157.538 195l6.455-1 .674 22.833-7.834 1.347z"/><path fill-rule="evenodd" clip-rule="evenodd" fill="#C4C4C4" d="M130.833 186.333l7-.833 13.25 7.833-10.583 3.334z"/><path fill-rule="evenodd" clip-rule="evenodd" fill="#3F785C" d="M130.833 186.333L130.167 213l11.276 7.567.496-13.842-1.439-12.058z"/><path fill-rule="evenodd" clip-rule="evenodd" fill="#539E77" d="M151.083 193.333v25.834l-9.64 1.4-.943-25.9z"/><path fill-rule="evenodd" clip-rule="evenodd" fill="#C4C4C4" d="M117.5 190.333l6.833-1L135.167 196l-10.834 1.667z"/><path fill-rule="evenodd" clip-rule="evenodd" fill="#5C753A" d="M117.5 190.333l-.887 22 7.72 6.105 1-10.938-1-10.833z"/><path fill-rule="evenodd" clip-rule="evenodd" fill="#749D4F" d="M135.167 196l.886 20.95-11.72 1.488v-21.771z"/><path fill-rule="evenodd" clip-rule="evenodd" fill="#C4C4C4" d="M96.333 188l7.405-.833 14.5 8.833-10.071 2.667z"/><path fill-rule="evenodd" clip-rule="evenodd" fill="#5C753A" d="M96.333 188v25.125l12.953 9.042.371-14.326-1.49-11.174z"/><path fill-rule="evenodd" clip-rule="evenodd" fill="#749D4F" d="M118.238 196l-.738 25.567-8.214.6-1.119-25.5z"/><path fill-rule="evenodd" clip-rule="evenodd" fill="#C4C4C4" d="M82.306 195.167L89.167 194l10.5 11.083-10.5 2.007z"/><path fill-rule="evenodd" clip-rule="evenodd" fill="#5C753A" d="M82.306 195.167v21.666L89.167 225l1-12.167-1-6.743z"/><path fill-rule="evenodd" clip-rule="evenodd" fill="#749D4F" d="M99.667 205.083L98 223.75 89.167 225v-18.91z"/></g><g><path fill="#3F8F6F" d="M691.55 214.72l4.95 16.93-3.543 4.562-4.54 1.634-2.761-19.679z"/><path fill="#54B08B" d="M688.417 237.846l8.083-6.196 6.424 6.196z"/><path fill="#35785D" d="M692.843 219.14l-6.048 7.143-1.139-8.116 5.894-3.447z"/><path fill="#3F8F6F" d="M682.5 185.5l-4.477-11.748-7.656 17.533zM697.833 191.5l10.417-5.264-6.26 18.014z"/><path fill="#35785D" d="M678.747 186.98l-1.58-5.897-2.542 8.523zM698.924 194.583l4.909-2.75-3.413 7.978z"/><path fill="#709D53" d="M665.333 192.271l-10.318-5.232-3.848 23.304 7.898 6.315L672 225l13.656-6.833L677.75 207z"/><path fill="#72C9A6" d="M665.333 192.271L682.5 185.5l7.577 3.965 7.756 2.035 6.667 18.843-18.844 6.824L672 211z"/><path fill="#54B08B" d="M704.5 210.343L684.917 207l-4.584-1.828-15-12.901L672 212l13.656 6.167z"/><path fill="#35785D" d="M680.333 205.172l.917 3.891 3.667-2.063z"/><path fill="#F5F5F5" d="M684.917 207l3.458-3.75 6.125 2.417zM680.333 205.172l.542-5.547-6.25-3.625z"/><path fill="#3F8F6F" d="M685.656 218.167l-4.406-9.104L672 212z"/><path fill="#A4CF7A" d="M682.5 185.5l2.417 15.667 12.916-9.667z"/><path fill="#35785D" d="M689.708 203.776l-1.291 1.057.346 1.632L690 205.5zM679.471 198.811l-1.346.939-.102 1.71 1.448-.874z"/><path fill="#5A753D" d="M672 212l-15.026-7.614 2.091 12.272 3.974 11.175L672 227l13.656-8.833z"/><path fill="#3F8F6F" d="M672 212l-5.448 10.644-7.488-5.987 5.196-8.579z"/><path fill="#54B08B" d="M659.064 216.657h10.552L672 227l-8.179-.717-4.145-1.283z"/><path fill="#709D53" d="M672 227l8.333 3.296v10.371l-9.966 3.666-7.328-4.333-1.652-9.704z"/><path fill="#35785D" d="M672 227l-10.613 3.296-2.115-6.546z"/><path fill="#A4CF7A" d="M672 227v11.86l-10.613-8.564z"/><path fill="#5A753D" d="M672 238.86l8.333 1.807-9.966 3.666z"/><path fill="#3F8F6F" d="M658.555 188.834l11.112-8.638-2.974-5.517-5.306-2.096z"/><path fill="#54B08B" d="M669.667 180.196l8.356-6.444-2.673-6.552-4.49-4.843-9.473 10.226z"/><path fill="#3F8F6F" d="M678.023 173.752l13.055.706-.661-8.15-3.25-6.808-16.307 2.857z"/><path fill="#35785D" d="M691.078 174.458l2.589-8.15-6.5-6.808z"/></g><g fill-rule="evenodd" clip-rule="evenodd"><path fill="#858686" d="M655.015 95.842l-32.527-3.308L558.725 89l-7.387 60.72L546.5 182l95.486 13.023 10.514-53.867z"/><path fill="#7A7A7A" d="M655.015 95.842L645.319 73l-50.247-.798L546.5 66.5l10.623 27.075 65.365 3.959z"/><path fill="#AAA" d="M461.986 182.57L486 192.406l53.502-9.836 4.472-12.409z"/><path fill="#707070" d="M486 190.406l-2.5 22.316 5 30.153 16.515-2.375 75.386-8.85-6.994-53.838z"/><path fill="#858686" d="M486 190.406l2.5 52.469-30-7.125 3.486-53.18z"/><path fill="#AAA" d="M543.713 202.386l49.561-11.98 21.592-2.745 27.12 7.362L628 242.875l-68.507 12.123-19.633-4.558z"/><path fill="#707070" d="M571.466 217.111l70.52-22.088 3.333 16.126L637 247l-79.877 15.5 4.774-24.654z"/><path fill="#858686" d="M571.466 217.111l-27.753-14.725L533.642 254l23.481 8.5z"/><path fill="#707070" d="M641.986 237.846l13.029-2.096.941-37.344L685.656 89l-17.854-2.132-12.787 8.974-13.029 99.181z"/><path fill="#AAA" d="M546.5 66.5L575.12 42 674 53l-28.681 20-50.247 3.202z"/><path fill="#606060" d="M641.986 195.023l13.97 3.383L663.039 240 637 247zM645.319 73L674 53l11.656 36-30.641 6.842z"/><path fill="#7A7A7A" d="M659.66 76.202L667.802 70l5.157 12.5-9.92 2.368z"/><path opacity=".14" d="M617.784 198.406l2.216-9.875 2.488-30.281-6.988-8.53 13.75-31.522-6.762-20.664-38.238 30.414-.393 55.466z"/><path fill="#738D56" d="M551.338 149.72l-23.671 14.731 3.166 8.76 7.283 9.686 7.634-14.314z"/><path fill="#98C16D" d="M595.022 148.516l2.249 1.207 1.003 2.426 2.916-.32.953 2.482h3.667l-1.971 20.296-10.565 15.799-20.957-.129-32.457-12.256 4.849-12.541 6.629-15.76 5.018-.953 2.61.953 2.931-2.006 1.981.802 3.047-1.757 12.966 14.389z"/><path fill="#A0CF7E" d="M593.274 190.406l-53.414-12.385-6.218 17.385 10.071 6.98z"/><path fill="#FFE6D6" d="M562.109 79.338l17.104-.428 15.859-2.708 12.586 11.871 14.83 9.461-4.704 10.991-5.284 15.225-2.842 12.547-29.767 24.851-10.516-29.273-18.961-19.145z"/><path fill="#F5CAB3" d="M562.707 99.533l4.897 9.696 7.516 5.963 6.687-4.175 5.614-3.225-11.94-7.331zM620.722 98.938l-11.225-3.096-19.924 49.774-9.682 15.532 23.948-19.992 1.971-3.663 3.848-1.196 4.267-12.891z"/><path fill="#C4937D" d="M557.123 135.883l22.768 25.265 9.682-15.532z"/><path fill="#FFF1E8" d="M571.086 99.171l-4.787 13.221 8.821 2.8 4.488-13.522z"/><path fill="#F4D8C9" d="M550.414 112.73l15.885-.338 8.821 2.8 20.909 14.297-6.456 16.127-45.86-13.755z"/><path fill="#C4937D" d="M566.299 112.392l3.559 5.276 5.262-2.476z"/><path fill="#4F5253" d="M579.608 101.67l7.813 6.122-8.855-2.988zM571.086 99.171l-8.379.362 7.374 2.412zM615.332 91.965l-5.864 3.209-3.339 8.559-.319 5.748-3.33 3.604-4.428 11.35 4.851 2.315 4.152-6.646 6.87 3.301 1.723-5.207-.134-3.168 2.27-3.284 4.704-14.212z"/><path fill="#C4937D" d="M609.658 136.297l-5.819-2.466v7.325zM604.85 130.638l1.961-5.379 3.653.475z"/><path fill="#9DA1A2" d="M562.109 79.338l19.688 9.805 27.861 4.696 12.83 3.695-27.416-21.332z"/><path fill="#686868" d="M581.797 89.143l13.275-12.941 27.416 21.332-13.02-2.36zM606.129 103.734l11.655 8.012-2.135 6.452-13.169-5.114z"/><path fill="#9AAE40" d="M597.272 149.724l-13.415 21.894-16.069-5.31-4.396-1.857 3.533-17.692-5.028.955-2.404 2.006-3.137-.954-5.527 24.445 33.028 6.732 21.953-25.632h-3.667l-.952-2.481z"/><path fill="#ADC54D" d="M587.421 182.57l-1.86-5.785 15.629-24.956 4.62 2.482zM561.897 147.714l-4.352 20.815-6.716 4.682 5.527-24.445z"/><path fill="#CFDE5C" d="M563.392 164.451l-12.563 8.76 13.044 2.659 3.915-9.562zM577.194 169.416l-3.787 8.396 10.45 2.131v-8.325z"/><path fill="#F5CAB3" d="M579.891 161.148h-7.977l-4.989-14.389z"/><path fill="#C4937D" d="M579.746 126.287l-10.958-3.12-9.843-3.652-.667 7.744 8.618 4.379 10.505.695z"/><path fill="#738D56" d="M605.81 154.311l11.974 44.095-24.51-8z"/><path fill="#FFE6D6" d="M527.667 164.451l-17.997 10.902 2.83 5.93 4.491 4.658 21.125-3.044z"/><path fill="#53AF8A" d="M509.67 175.353l-6.042.914 2.039 6.303 3.7 4.469 7.624-1.098z"/><path fill="#F5CAB3" d="M503.628 176.267l-13.211-3.684 2.916 6.042 6.417 5.316 2.083 2 7.534 1.098z"/><path fill="#FFE6D6" d="M499.75 183.941l-3.167 3.319 2.433 1.271 10.351-1.492zM490.417 172.583l-10.203 7.228 9.953 4.856 9.583-.726z"/><path fill="#3F785D" d="M518 204.25l.423 14.89 3.827 15.36 13.002 11.25 6.444-33.028z"/><path fill="#53AF8A" d="M518.423 219.14l19.58 12.51-2.751 14.1L525 242.875l-6.016-4.015z"/><path fill="#738D56" d="M518.984 238.86L506 250.25l14.626 1.875 13.711-1.685.915-4.69z"/><path fill="#98C16D" d="M506 250.25V254h27.642l.695-3.56z"/><path fill="#3C8466" d="M540.679 217.937l-13.012-3.215L518 204.25l-3.5-11.844 19.142 3 10.071 6.98z"/><path fill="#53AF8A" d="M527.667 214.722l-27.775 11.78-3.309-8.064-2.583-9.826 20.5-16.206z"/><path fill="#738D56" d="M494 208.612l-15.75-4.226 8.25 16.626 5.625 8.989 7.767-3.499z"/><path fill="#98C16D" d="M492.125 230.001l-4.16 1.649-13.215-23.572 3.5-3.692z"/><path fill="#758D53" d="M562.885 182.57l.573-2.546-2.958-.505zM537.385 198l.731-15.103 5.858-.327-3.114 3.371.431 9.735z"/><path fill="#749C4F" d="M556.917 195.25L567 187.833l-6.5-8.314L537.385 198l5.865 7.667 9.5-7.417-3.667-6.083 2.75-2.083 5.084 5.166zm3.5-12l3.25 4.25-6.167 4.833-3-4.25 5.917-4.833zm-10.75 15l-5.583 4.333-3.333-4.083 5.667-4.333 3.249 4.083z"/><path opacity=".13" d="M590.923 204.25l-19.457-8.572 14.095-3.407z"/><path fill="#FFE6D6" d="M617.784 198.406l-28.211-21.621-9.172 10.636 10.522 16.829z"/><path fill="#53AF8A" d="M589.573 176.785l-5.716-5.167-8.793 9.578 5.337 6.225z"/><path fill="#FFE6D6" d="M583.857 171.618l-16.069-5.31-7.288 13.211 14.564 1.677z"/><path fill="#C4937D" d="M571.466 180.782l-4.291 3.159-4.29-1.371.573-2.546z"/><path fill="#F5F5F5" d="M560.333 121.833l7.455 3.426 9.82 2.074-.288 1.671-16.987-4.837z"/><path fill="#F5CAB3" d="M567.788 166.308l-4.891 2.275-2.397 10.936z"/><path fill="#749C4F" d="M562.897 168.583l.495-4.132 6.479-.576-2.083 2.433z"/><path fill="#3F785D" d="M537.385 198l3.294 19.937 2.571-12.27z"/><circle fill="#2B2B2B" cx="564.323" cy="106.01" r="2.302"/><circle fill="#2B2B2B" cx="582.344" cy="111.906" r="2.365"/></g><g fill-rule="evenodd" clip-rule="evenodd"><path opacity=".1" fill="#2B2B2B" d="M174.047 270.333L117.5 299l119.875 51L399 292.5l-3-56.833z"/><path fill="#707070" d="M375.75 218.438L371.5 198l-76.485-17.976L304.156 207l31.677 11.018z"/><path fill="#C4C4C4" d="M286.333 136.5l-24.833-2-79 50.167L205 196.51 272.5 157z"/><path fill="#858686" d="M205 193.333l15.833 72.334 56.998-35.371L304.156 207l-17.823-51.058L270.5 155z"/><path fill="#AAA" d="M223 264.667L304.156 207l70.782 11.18-24.035 32.07-36.153 25.25z"/><path fill="#858686" d="M374.938 218.18L378 232.063l2.38 18.062-26.408 27.542L323.958 309l-9.208-33.5z"/><path fill="#919191" d="M380.38 250.125L371.5 198l13.515-11.764L396 235.667z"/><path fill="#C4C4C4" d="M385.015 186.236l-88.265-19.928 7.406 17.633L371.5 198z"/><path opacity=".2" fill="#2B2B2B" d="M347.579 284.341l-17.328-23.603-43.918-1.499-28.256-19.497L248 215l11.75-37.686 22.5-.562 38 48.248 38.744 22.111 1.163 24.105z"/><path fill="#F1CAB1" d="M318.25 178.021l20.375 20.239 6.649 5.99 3.289 10.75-25.582-4.657z"/><path fill="#F5CAB3" d="M358.25 223.75l16.375 32.5-3.125 3.5-5.542 2.75-19.583-15.934z"/><path fill="#FFE6D6" d="M374.625 256.25l10.39 6.25-11.029 3.167-8.028-3.167z"/><path fill="#738D56" d="M385.015 262.5l8.485 2.414-19.833 5.419-7.709-7.833 7.709 2.167z"/><path fill="#FFE6D6" d="M358.25 223.75l7.708 38.75-3.833 2.167h-5.859l-14.28-9.669 6.514-16.138z"/><path fill="#FFF1E8" d="M365.958 262.5l7.709 7.833L363.5 273l-7.234-8.333z"/><path fill="#738D56" d="M373.667 270.333l7.666 7.667-15.375 1.667-5.937-6.334L358.25 278l-4.278-.333-.722-9.917 3.016-3.083L363.5 272z"/><path fill="#709D53" d="M318.25 178.021l12.001 20.239-15.879 22.069-31.122 20.546-11.75-22.938 11.941-45.354z"/><path fill="#5E5E5E" d="M316.372 107.036l-24.705 1.464-5.334 28z"/><path fill="#FFE6D6" d="M362.25 133.063l-5.25 41.52-27.396-2.125-11.354 4.563L304 158.5l4.75-8.78 26.25-4.104z"/><path fill="#F5CAB3" d="M325.458 173l-5.958-1.417 2.078-23.869-12.828 2.006-5.75 8.78 5.836 7.47 10.642 9.9z"/><path fill="#C4937D" d="M329.604 172.458l-10.104-.875-10.667-5.616 9.417 12.054z"/><path fill="#F5CAB3" d="M360.157 141.253l-10.719 12.726-4.98-.687-9.458-7.676 10.909-8.237 6.466.632z"/><path fill="#FFF1E8" d="M352.375 138.011l-2.937 15.968-4.98-.687 1.451-15.913z"/><path fill="#C4937D" d="M349.458 153.917l-2.875 2.625-2.125-3.25zM362.25 133.063l-24.201 15.036-28.693 6.276-3.182 9.907-4.821-5.732 7.397-8.83 26.25-4.104 28.188-20.366z"/><path fill="#2B2B2B" d="M352.622 144.266l2.957 1.769 2.671-.885v1.388l-3.098.848-2.839-1.56zM338.935 142.706l2.957 1.769 2.671-.885v1.388l-3.098.848-2.84-1.56z"/><path fill="#5E5E5E" d="M367 122l-29.966 24.895-31.096 4.325 34.229-41.387z"/><path fill="#6F7173" d="M340.167 109.833L302 159.5l-15.667-23 34.167-34.667z"/><path fill="#858686" d="M286.333 136.5l31.917 41.521-24.917 4.646L270.5 155z"/><path fill="#4F5253" d="M360.157 141.253l-7.782-3.242 1.125-3.511z"/><path fill="#35785D" d="M335.188 161.942l9.343-3.5 3.157 4z"/><path fill="#3F8F6F" d="M335.188 161.942l3.416 5.783 6.459-1.783 2.625-3.5z"/><path fill="#F5F5F5" d="M345.854 162.442l-1.323 2-9.343-2.5z"/><path fill="#5A753D" d="M271.5 217.937l58.751-19.677-7.327 12.048-8.174 16.442-32.5 16.125z"/><path fill="#5E5E5E" d="M318.25 178.021L270.5 155l21.833 29.667z"/><path fill="#99C26D" d="M314.75 223.75h43.5l-17.264 28.248-51.319 5.335-7.417-14.458z"/><path fill="#709D53" d="M358.25 223.75l-68.583 33.583 52.319-2.335z"/><path fill="#F1CAB1" d="M318.25 178.021l6.03 30.057 3.095 11.422-12.625 4.25-22.417-39.083z"/><path fill="#FFE6D6" d="M324.28 208.078L348.563 215l-2.188 7.47-4.389 1.28H314.75z"/><path fill="#FDE6D5" d="M348.563 215l13.77 5.567-6.885 8.567L346 223.75z"/><path fill="#F1CAB1" d="M362.333 220.567l.207 11.878-7.092-3.311z"/><path fill="#709D53" d="M346 223.75l2.563-8.75-6.577-1.875v10.625z"/><path fill="#C4937D" d="M362.54 232.445l2.248 4.556-9.34-7.867-10.174 28.09-3.288-2.226 13.462-25.864z"/><path fill="#FDE6D5" d="M376.655 171.618l-10.638 5.696-2.059-2.731 5.042-7.25z"/><path fill="#F5F5F5" d="M338.049 148.099l1.133 3.854-2.697 1.625-1.636-1.625z"/><path fill="#F5CAB3" d="M340.167 151.75l-2.698 3.25-1.636-3.25 1.636 1.625z"/><path fill="#F5F5F5" d="M355.192 147.386l1.755 3.614-2.391 2.049-1.882-1.332z"/><path fill="#F5CAB3" d="M356.947 151l-2.122 3.651-2.151-2.934 1.882 1.332z"/><path fill="#C4937D" d="M378.38 172.583v-6.762l-3.855.146-2.039 3.318z"/><path fill="#FDE6D5" d="M338.625 198.26l18.532-16.635 5.176 2.316 1.667 3L348.563 215z"/><path fill="#C4937D" d="M357.157 181.625l10.015-4.873 5.314 9.145-8.486 1.044zM352.313 163.333l1.074 6.5 3.863.328-.984-4.34z"/><path fill="#B8C745" d="M376.655 171.618l-5.155-13.676-13.828 8.025 4.078 13.423 6.577.989z"/><path fill="#E8F078" d="M371.5 157.942l-11.479 15.757-2.771-3.538-.984-9.469z"/><path fill="#D9E354" d="M364.822 159.148l-9.374-6.773-3.135 10.958z"/><path fill="#B8C745" d="M360.021 173.699l-4.573-21.324-3.135 10.958z"/><path opacity=".2" fill="#262626" d="M360.021 173.699l16.634-2.081-8.328 8.761-6.577-.989z"/><path fill="#F5CAB3" d="M372.486 185.897l9.529-11.279-5.36-3-10.638 5.696z"/><path fill="#919191" d="M312.626 246.091L323.958 309 304 326l-11.667-67z"/><path fill="#707070" d="M182.5 184.667L170.75 303.75 304 326l-9.625-65.668-75.044-10.207L205 193.333z"/><path fill="#C4C4C4" d="M312.626 246.091l-75.251-8.758-18.044 12.792 75.044 10.207z"/></g><g fill-rule="evenodd" clip-rule="evenodd"><path fill="#DDB19E" d="M443 37.207l-.917-4.202.917-.871 1.399 2.824-.399 1.249zM395.125 46.313V42.01H394l-.75 2.346.75 1.394z"/><path fill="#3F8F6F" d="M412.346 48.99l.404 3.26-.75 4-9.461 1.75v-4.167l1.442-2.46z"/><path fill="#54B08B" d="M403.981 51.373l-8.856-5.06-.937 1.687-.188 1.911L402.539 58z"/><path fill="#3F8F6F" d="M427.336 46.313l9.562-1.689 2.165 1.689 1.562 2.677-8.125 3.26-2.787-2.339z"/><path fill="#54B08B" d="M436.898 44.624L443 37.207l1.813.543L446 38.902l-5.375 10.088z"/><path fill="#F5CAB3" d="M443 37.207l1.399-2.249 2.164.464 1.927 1.095-2.49 2.385zM395.125 46.313l-1.875-1.957-1.917 1.957-.958 2.562L394 49.911z"/><path fill="#DDB19E" d="M444.399 34.958l2.822-4.708 2.821 2.755-1.552 3.512zM393.25 44.356l-3.75-4.609-1.75 4.826 2.625 4.302z"/><path fill="#F5CAB3" d="M435.714 82.69l-11.521 14.747.494-13.038z"/><path fill="#FFE6D6" d="M424.193 97.437l1.094-1.518 4.361 5.801-6.455-2.087z"/><path fill="#738D56" d="M423.193 99.633v3.044h1.129v-1.522l2.547 2.477 4.611-.977-1.832-.935z"/><path fill="#FFE6D6" d="M425.347 84.297l-1.154 13.14-3.779.925-5.086-12.513z"/><path fill="#FFF1E8" d="M424.193 97.437l1.724 4.063-4.167.417-1.336-3.555z"/><path fill="#709D53" d="M425.917 101.5l2.397 1.825-5.564 1.179-1.926.408-1.873-2.995 1.463-3.555 1.336 3.555z"/><path fill="#C4937D" d="M415.328 85.849l9.84.481-.216 2.462 10.762-6.102-10.367.935z"/><path fill="#54B08B" d="M425.138 43.573l7.362 8.677-10.87 3.656-9.63.344.5-10.5z"/><path fill="#3F8F6F" d="M432.5 52.25l-4.529 11.5L415.328 65 412 56.25z"/><path fill="#FFE6D6" d="M432.957 20.268l4.273 15.62-10.288 3.349-1.934 4-7.184-4.383.461-3.565 8.292-4.773z"/><path fill="#F5CAB3" d="M427.971 38.902l-3.967 1.305-1.667-7.251-5.973 1.561L415 40.688l6.25 5.062 2.625.563 1.263-2.74z"/><path fill="#C4937D" d="M427.971 38.902l-3.967 1.305-3.59 1.03 4.724 2.336z"/><path fill="#F5CAB3" d="M434.469 25.796l-2.06 5.084-1.761.437-4.071-.801 2.602-4.179 2.087-.796z"/><path fill="#FFF1E8" d="M431.266 25.541l1.143 5.339-1.761.437-1.469-4.98z"/><path fill="#C4937D" d="M432.409 30.88l-.627 1.254-1.134-.817zM433.695 22.966l-7.606 7.915-6.998 5.894-.966 6.798-2.446-2.336 2.606-5.948 6.166-5.184 8.506-9.837z"/><path fill="#4F5253" d="M434.469 25.796l-3.203-.255.092-1.154z"/><path fill="#3F8F6F" d="M428.202 34.517l4.409 1.69 2.28-3.624z"/><path fill="#F5F5F5" d="M434.016 33.005l-1.707 2.417-2.596-1.023z"/><path fill="#35785D" d="M428.202 34.517l3.626-1.715 3.063-.219-2.685 1.37z"/><ellipse transform="matrix(.9333 -.359 .359 .9333 18.9731 157.3804)" fill="#2B2B2B" cx="433.201" cy="27.609" rx=".583" ry=".729"/><ellipse transform="matrix(.9333 -.359 .359 .9333 18.142 155.7659)" fill="#2B2B2B" cx="428.438" cy="29.039" rx=".583" ry=".729"/><path fill="#5E5E5E" d="M415.328 19.957l-7.683 3.491 1.397 10.296zM434.279 18.44l-8.904 11.979-9.011 6.788 7.323-19.386z"/><path fill="#6F7173" d="M423.687 17.821l-7.323 24.189-7.322-8.266 7.001-16.069z"/><path fill="#858686" d="M409.042 33.744L421.25 45.75h-8.75l-6.388-3.74z"/><path fill="#5E5E5E" d="M421.25 45.75l-15.138-3.74 6.234 6.98z"/><path fill="#99C26D" d="M427.971 63.75l7.743 18.94-20.386 3.159L412 73.017 415.328 65z"/><path fill="#709D53" d="M412 73.017l23.714 9.673-20.386 3.159z"/></g></svg>