<svg xmlns="http://www.w3.org/2000/svg" viewBox="0 0 900 350"><path opacity=".1" fill="#2B2B2B" d="M36.955 205.38l133.908-12.747 366.976 2.252L884 212.532l-32.486 8.04-41.412.76-11.282 11.32-95.058-1.232-66.435-4.578-134.402 13.474-81.373-9.981-129.883 9.981-79.25-11.748-60.521-10.877-73.996-3.361z"/><path fill="#D1D1D1" d="M274.403 212.532l38.465-1.673 26.378-.775 7.841-106.657-66.988-8.175-28.742 2.677z"/><path fill="#D8D8D8" d="M108.889 76.311l-23.393 3.965 1.215 25.45-13.609.232-.873 20.505-3.491-2.44H54.771l-2.095-27.394-17.457 2.158 4.19 53.993-6.653-2.219-13.947 1.594-3.142 34.948 42.297-2.208 73.805-4.329z"/><path fill="#AFAFAF" d="M52.676 96.629l9.427 3.478 2.439 84.402-15.706.386zM86.711 105.726l12.228 4.163-3.317 72.797H85.496zM39.409 152.78l1.746 32.515-6.772.831-1.627-35.565z"/><path fill="#D8D8D8" d="M755.164 161.959V45.286l30.643-3.666v68.786l22.765-2.275 9.09 3.003 1.427-16.216 20.918-1.45 1.397 69.093 22.695-.418 2.793 36.423-111.728-3.681z"/><path fill="#AFAFAF" d="M785.807 41.62l11.303 5.673-3.976 148.843-12.306-.405zM808.572 108.131l-2.607 88.428 8.126.267 3.571-85.692zM840.007 93.468l9.689 2.932 1.818 101.659-11.507-1.233zM864.099 162.143l12.045 2.617 4.452 33.806h-13.704zM777.291 50.436l3.012-.393-.655 5.499-2.095-.262zM768.519 50.828h3.273l-.393 4.976-2.749.262zM759.616 51.483l3.404-.393-.524 5.107h-3.142zM768.519 63.791l3.011-.655v5.761l-3.011-.524zM777.029 63.398l3.274-.262-1.048 6.154-2.226-.393zM759.747 63.921l3.142-.523-.262 5.237-2.619-.393zM777.684 80.157l-.655-4.845 3.012.262-.393 4.583zM768.519 79.764l-.524-4.583 3.274-.261-.655 5.237zM759.223 75.181l3.142-.392-.262 5.106-2.749-.917zM822.986 102.022l3.274-.262-.524 4.976-2.226-.393zM830.973 101.891l2.488-.261-.786 4.713-2.226.131zM823.379 113.937l2.226-.655v5.107h-2.75zM830.187 113.413l3.274-.131-.393 5.369h-2.619zM822.724 126.375l2.619-.523-.131 5.892-2.749-.393zM830.711 126.245l3.012-.262-.393 6.546-2.488-1.047zM91.956 85.787l3.491-.524-.174 5.587h-2.27zM100.859 84.39s4.015-.524 3.491-.524c-.524 0-.175 6.285-.175 6.285l-2.968-.349-.348-5.412zM102.256 97.658l3.142-.524v6.285l-2.619.174zM92.829 98.705l2.444-.698.872 6.459-3.316-.523zM24.046 157.886l3.317-.698-.524 5.237-2.793-.349zM24.221 168.71l2.618-.349-.349 5.761-3.142-.35zM68.738 124.023L67.5 184.336h3.158l1.571-57.873z"/><g><path fill="#8F8F8F" d="M114.912 45.46l5.499-6.023 9.427 1.572-7.07 6.546z"/><path fill="#AFAFAF" d="M120.935 55.411l-2.357-8.903 6.285-2.619v12.046z"/><path fill="#ECECEB" d="M114.912 45.46l4.976-14.402 9.95 9.951z"/><path fill="#C4C4C4" d="M119.153 174.838L105.049 57.159l46.849-17.394 6.379 131.922z"/><path fill="#999" d="M151.898 39.765l45.664 9.099 1.025 119.302-40.31 3.521z"/><path fill="#ECECEB" d="M113.603 64.287l4.359 30.935 11.091-2.627-3.26-31.175zM135.861 90.762l-2.995-32.021 11.375-5.163 2.357 33.256z"/><path fill="#8F8F8F" d="M116.614 67.457l7.071-2.226.392 7.332-6.677.785zM118.055 76.36l6.415-1.048 1.571 14.665-5.499 1.833zM136.123 61.041l6.023-1.833.524 7.987-6.285 1.702zM136.778 72.956l6.023-2.226 1.047 13.748-5.761 1.178z"/><path fill="#C4C4C4" d="M161.087 51.919l13.617 1.746-2.095 27.758-11.522-.699zM180.814 55.236l11.871.524-1.396 24.964-11.348-.174z"/><path fill="#6F7173" d="M164.055 55.236l7.681 1.746-.349 6.285-7.681-1.048zM163.88 66.235h6.983l-.873 11.521-6.11.35zM183.084 58.728l7.332.524-.524 6.284-6.634-1.396zM182.909 67.631l6.459.524.524 10.998h-6.634z"/></g><g><path fill="#D1D1D1" d="M148.692 135.017l-85.541 12.918-8.38 59.705 108.237 2.793z"/><path fill="#ECECEB" d="M71.181 156.315l-1.396 13.966 15.711.349v-15.362zM97.717 153.871l-2.095 16.41 16.759-1.397 1.047-17.108z"/><path fill="#8F8F8F" d="M73.625 158.759l9.078-.698-.174 3.142h-9.427zM72.753 163.822h9.427l.349 4.189-10.126.175zM100.335 156.14l10.126-1.222-.699 3.841-10.125.873zM99.288 162.425l10.649-.873v4.888l-10.998 1.048z"/><path fill="#ECECEB" d="M83.584 208.383v-26.406h19.021l-.698 26.879z"/><path fill="#AFAFAF" d="M86.711 208.464v-22.471l12.228-.524-.699 22.995zM62.693 151.195l-10.017-4.219 96.016-11.959.845 4.452z"/><path fill="#ECECEB" d="M52.676 146.976l2.095-7.093 94.766-11.125-.845 6.259z"/></g><g><path fill="#ECECEB" d="M131.553 117.268l21.931-29.234 44.437-17.933-2.685 32.503-30.499 9.893z"/><path fill="#C4C4C4" d="M197.921 70.101l51.611 9.633 28.568 34.735-48.185-.363-34.679-11.502z"/><path fill="#AFAFAF" d="M144.301 100.276l52.503-16.647-.276 3.338-54.592 16.46z"/><path fill="#8F8F8F" d="M259.146 91.424l-62.342-7.795-.276 3.338 66.773 9.509z"/><path fill="#AFAFAF" d="M131.553 117.268l63.683-14.664 13.51 58.107 3.673 67.857-65.478-2.537z"/><path fill="#8F8F8F" d="M195.236 102.604l82.864 11.865-3.61 107.921-62.071 6.178z"/><path fill="#C4C4C4" d="M212.063 118.52l21.473.785V152.3l-17.807.523zM246.629 121.662l20.687 3.666-3.143 31.685-17.021-3.142zM217.038 165.131l18.854 1.047-1.047 34.828-13.879 2.357zM247.414 166.44l16.759-.523-.785 32.732-17.021 2.095z"/><path fill="#6F7173" d="M216.602 123.146l13.093.873.349 8.03-13.268-1.047zM217.998 136.239l12.046-.524-.349 12.919-10.998-.699zM250.993 127.336l12.569 1.396-1.396 8.031-11.348-2.27zM250.993 138.508l10.824 1.921-.524 11.347-10.649-1.047zM222.188 169.757l10.824.873-.349 7.507-10.649 1.047zM222.014 179.184l10.823 1.104-1.047 16.877-7.856.524zM251.517 170.281l9.776-.175-.873 8.031-10.474-.349zM250.295 182.152l9.601-.175.524 12.395-9.951 1.746z"/></g><g><path fill="#999" d="M578.847 130.528l4.704-120.681-72.281-7.856v142.896z"/><path fill="#D1D1D1" d="M511.27 1.991l-30.069 23.044 7.933 103.055 22.136 16.797zM561.212 19.798h14.664l-1.397 19.203-12.569-1.746zM539.565 17.354l15.362.873-1.92 19.203-11.871-1.048zM520.012 16.306l12.57-.174-1.048 19.028-13.093-2.444zM518.965 45.809l12.918-.523-.174 17.632-13.442-1.572zM540.263 45.809l12.744 1.397v17.108h-14.664zM561.212 48.253l12.569 1.048-.174 18.33-13.966-2.618zM518.092 74.265l13.617-.349.349 18.156-13.617.349zM540.787 75.138l13.267.698-1.222 16.934-13.093.698zM561.037 75.836l12.919-.174-.873 17.981-13.268-1.746z"/><path fill="#6E7172" d="M563.612 22.024l9.82.261-.393 4.059-9.296-.654zM564.005 27.654l8.903 1.178-.654 7.201-7.725-.916zM542.663 20.191l9.296.523-.131 4.059-9.427-.393zM542.663 26.868l8.773.655-.393 7.07-7.987-.917zM522.107 19.143l7.987-.262-.262 4.845-8.118-1.048zM521.583 25.297l7.725.785-.131 6.285-8.248-1.833zM521.322 48.21l7.986-.524.262 5.499-8.903-1.178zM520.929 54.887l8.641.917-.262 4.713-8.51-1.047zM542.663 48.864l7.987.786-.131 4.059-8.118-.524zM542.009 55.935l8.379.262v5.63l-9.034.261zM563.481 50.959l8.249.655-.524 3.535h-8.379zM562.434 57.375l8.641.524.524 6.546-9.558-1.178zM520.929 77.276l8.51-1.047v4.321l-8.379.392zM520.798 83.954l8.641-1.048.131 6.678h-8.248zM542.925 77.931l8.773.262-.131 3.535-9.035.262zM542.663 84.609l8.511-.524.131 6.546h-9.034zM562.827 78.193h8.379l.393 4.452-9.427-.131zM562.434 85.394l8.51-.655v6.154l-9.165-1.178z"/></g><g><path fill="#AFAFAF" d="M636.617 108.442l-116.038 4.302-5.513 100.867 122.682 4.08z"/><path fill="#ECECEB" d="M530.153 128.807l22.946-.717-1.338 22.898h-22.373zM564.572 128.09h21.99v21.751h-21.99zM599.887 128.09l22.02-.861 2.039 22.612-24.955 1.147zM528.432 169.836l23.711-.874-.382 24.63-24.859-1.767z"/><path fill="#6F7173" d="M533.213 132.105l6.883-.717.717 8.892-8.174-.717zM542.391 131.962l7.027-.574.144 8.462h-6.454zM533.069 142.001l7.601.573-.574 6.167-7.314-.573zM542.821 142.288l6.024-.431.43 6.167-7.171.574zM567.345 130.958l7.314.43-.861 7.171-6.597-.144zM576.523 131.532l7.028-.431v6.454l-7.314.717zM567.488 140.71l6.741.43v6.31l-6.884.287zM576.38 140.71l6.74-.574.717 6.597-7.457 1.004zM602.911 131.101l7.888.144-.574 7.314-8.174-1.004zM612.09 131.388l.717 6.597 8.174.287-1.004-7.744zM602.625 140.423l8.461.43-.43 6.741-8.318.287zM612.377 140.71l8.461-.43.574 6.884-8.892-.574zM531.635 172.835l8.031.86-.717 7.458-8.605.143zM541.817 173.695l6.741-.574.573 8.032-7.744-.144zM530.918 183.877l7.744-.43.144 6.741-8.175-1.435z"/></g><g><path fill="#8F8F8F" d="M795.531 132.458l7.446 3.123 4.323-3.843z"/><path fill="#AEAEAE" d="M799.374 140.865l-.48-7.926 5.044.48-1.442 8.406z"/><path fill="#ECECEB" d="M795.531 132.458l6.485-7.685 5.284 6.965z"/><path fill="#C4C4C4" d="M761.15 141.527l57.939-3.193 6.31 36.274v43.008l-72.854-4.069z"/><path fill="#ECECEB" d="M797.11 152.065l13.725-1.615v20.79l-13.725-.807zM771.476 154.084l14.331-1.211v19.376l-14.331-1.009zM797.11 183.69l15.34-.885v18.446l-15.34 1.211zM772.432 182.564l13.576 1.7v18.261l-15.679-1.338z"/><path fill="#8F8F8F" d="M799.585 154.339l8.796-1.466v5.481h-8.796zM799.585 161.031l8.796.574.191 6.884-9.37-.383zM773.579 156.633l9.37-1.147.191 4.207-9.752.191zM773.388 162.561l9.943.574.383 5.927-10.517-.191zM799.585 185.889l10.517.192-.191 4.206-11.282.765zM799.011 192.964l10.9-.191.382 6.502-11.473.573zM773.962 185.125l9.369 1.529.192 4.016-9.752-.956zM773.579 193.156l9.561-.574.191 7.84-10.517-1.339zM819.089 138.334l27.727 12.116-5.546 65.269-15.871 1.897z"/></g><g><path fill="#6F7173" d="M718.247 52.828l-10.039 7.685-11.903-3.574z"/><path fill="#8F8F8F" d="M705.029 69.846l-4.852-11.745 12.182-2.311-1.569 14.056z"/><path fill="#C4C4C4" d="M696.305 56.939l21.942-4.111-14.628-9.37zM628.255 74.792l111.288-12.238-3.442 70.09-17.975 98.951-80.39-5.589z"/><path fill="#8F8F8F" d="M739.543 62.554l34.801 30.447-16.062 134.769-40.156 3.825z"/><path fill="#ECECEB" d="M643.25 96.208l26.403-4.589v37.288l-26.403 1.147z"/><path fill="#6F7173" d="M646.276 99.364l8.748-1.435-1.003 12.908-7.745 1.721zM657.749 97.929h8.892l-.861 12.19-9.178.287zM653.877 113.848l1.147 12.047-7.711 1.147-1.037-10.326zM656.602 112.558l10.039 1.29-1.004 11.473-7.027.861z"/><path fill="#ECECEB" d="M685.646 90.663l29.292.956-3.059 36.332-28.683.956z"/><path fill="#6F7173" d="M689.124 95.252l9.943 1.148-1.721 12.429h-8.222zM701.17 96.4h9.179v12.429h-9.943zM709.584 112.558l-9.178-.861-1.339 10.899 9.37 1.339zM696.581 111.697h-9.126v12.238l9.126-1.147z"/></g><g><path fill="#8F8F8F" d="M521.583 71.123l4.714 155.545-104.745 3.667L436.74 48.603z"/><path fill="#C4C4C4" d="M436.74 48.603l-104.759 20.5-8.888 153.372 98.459 7.86z"/></g><g><path fill="#B8C745" d="M197.413 48.864L329.25 51.25l151.951-26.215 194.445 23.218 4.812 20.854-12.125 48.56 36.252 56.02-280.158 32.72-260.31-33.083z"/><circle fill="#E8F078" cx="494.343" cy="77.846" r="16.095"/><path opacity=".3" fill="#709D53" d="M580.937 62.675l14.566-6.585 35.566 4.316-15.878 5.324-12.661-3.557zM446.623 44.432l17.544-4.037 18.827 2.518 11.146-.5 4.685 5.841-26.771 2.271-3.872-1.982-19.645.786zM667.868 177.975l-5.782-90.159-53.738-15.731-55.792 41.965L472.75 120 418.5 89.25l-98.891 44.505-62.637-71.267-40.37-13.268-19.189-.356-33.296 124.46 260.31 33.083z"/><path fill="#54B08B" d="M536.663 118l2.57-51.942 8.091-.24-1.957 52.869z"/><path fill="#4D9974" d="M546.676 83.32h-8.297l.462-9.34h8.181z"/><path fill="#3F8F6F" d="M550.578 104.278l9.25 2.095-.302 15.846h-7.332z"/><path fill="#35785D" d="M559.828 106.373l-9.25-2.095.266 2.951 8.931.749.01.655 1.771-1.404z"/><path fill="#54B08B" d="M553.51 104.942l8.046 2.287-5.172-8.503z"/><path fill="#4D9974" d="M556.384 98.726l-5.806 1.265 2.932 4.951z"/><path fill="#72C9A6" d="M561.556 107.229l-7.258-3.991-.788 1.704z"/><path fill="#54B08B" d="M540.047 93.641l12.147 2.76 3.762 24.417h-13.38z"/><path fill="#35785D" d="M552.194 96.401l2.357.841-1.932 1.915-.2-1.298-10.884-.205-.167-3.713z"/><path fill="#54B08B" d="M541.368 93.941l13.183 3.301-7.921-11.544z"/><path fill="#4D9974" d="M546.63 85.698l-7.594 2.378 2.332 5.865z"/><path fill="#72C9A6" d="M554.551 97.242l-11.718-5.595-1.465 2.294z"/><path fill="#3F8F6F" d="M527.734 77.497l13.02 2.767 1.822 40.554-12.024-3.335z"/><path fill="#35785D" d="M537.602 89.273l.322-4.036-.803-2.057-.941 2.144.106 3.841zM543.402 72.776l.202-2.539-.505-1.294-.591 1.349.066 2.415zM543.179 78.689l.202-2.539-.505-1.294-.592 1.349.067 2.416zM544.6 104.148l-.018-2.232-.773-1.602-.622 1.781.202 1.988zM548.037 104.116l.015-1.97-.773-1.603-.623 1.781.203 1.792zM551.441 104.083l.015-1.839-.773-1.603-.622 1.782.136 1.66zM557.595 113.379l.014-1.839-.772-1.603-.623 1.782.137 1.66zM545.287 110.335l-.018-2.232-.772-1.603-.623 1.782.202 1.987zM548.724 110.302l.015-1.97-.773-1.602-.622 1.781.202 1.791zM552.129 110.269l.014-1.839-.772-1.602-.623 1.781.137 1.66zM533.836 88.737l.204-4.044-.862-2.033-.878 2.171.176 3.813zM537.864 98.7l.321-4.036-.802-2.057-.941 2.144.106 3.841zM534.098 98.164l.204-4.044-.862-2.033-.878 2.171.176 3.813zM540.834 82.054l-11.371-1.348-.085-2.86 11.376 2.418 2.668 1.005-2.531 2.051z"/><path fill="#54B08B" d="M529.378 77.846l4.662-8.929 9.382 12.352z"/><path fill="#4D9974" d="M534.04 68.917l-8.392 2.269 3.73 6.66z"/><path fill="#72C9A6" d="M529.378 77.846l1.174-2.249 12.87 5.672z"/><path fill="#3F8F6F" d="M491.073 99.681l-9.058 1.851-1.397 15.951 8.355-2.433z"/><path fill="#54B08B" d="M478.611 103.23l9.165-10.623 2.08 8.66z"/><path fill="#4D9974" d="M487.776 92.607l6.731 1.1.545 7.234-5.196.326z"/><path fill="#35785D" d="M481.777 104.25l9.001-1.02-.922-1.963-7.939 1.386-3.306.577 3.071 2.109z"/><path fill="#72C9A6" d="M478.611 103.23l10.645-4.461.6 2.498z"/><path fill="#54B08B" d="M488.973 115.05l1.962-30.599 9.106-1.874-1.048 36.728z"/><path fill="#35785D" d="M490.685 88.338l.093-1.447 8.648-.761-1.048-3.173-7.443 1.494-3.159 1.679z"/><path fill="#54B08B" d="M487.776 86.13l10.602-3.173-2.342-6.709z"/><path fill="#72C9A6" d="M487.776 86.13l10.013-4.861.589 1.688z"/><path fill="#4D9974" d="M496.036 76.248l6.87 1.598-4.528 5.111z"/><path fill="#3F8F6F" d="M498.993 119.305l-.796-47.068 13.496-1.051-1.606 51.033z"/><path fill="#35785D" d="M502.44 82.883l-.523-4.015.698-2.095 1.047 2.095.088 3.84zM505.931 82.52l-.407-4.029.758-2.074.987 2.125.016 3.817zM502.412 92.229l-.378-4.031.774-2.068.971 2.131-.052 3.841zM505.913 91.993l-.261-4.041.834-2.045.908 2.159-.122 3.816zM502.674 102.006l-.378-4.032.774-2.068.97 2.131-.052 3.842zM506.175 101.769l-.261-4.04.834-2.045.908 2.158-.122 3.816zM498.197 72.237l11.89-1.051v3.405l-11.858-.655.019 1.305-2.791-2.658z"/><path fill="#54B08B" d="M510.087 71.186l-14.63 1.397 9.488-13.049z"/><path fill="#4D9974" d="M504.945 59.534l5.142 2.605 1.606 2.85-1.606 6.197z"/><path fill="#54B08B" d="M510.087 122.219v-60.08l18.83.156 1.635 55.188z"/><path fill="#3F8F6F" d="M510.087 62.139l18.83 1.912v-1.756l-18.83-.156z"/><path fill="#54B08B" d="M510.087 62.139l18.83.156-9.185-25.216z"/><path fill="#72C9A6" d="M510.087 62.139l1.003-2.605 17.012.523.815 2.238z"/><path fill="#3F8F6F" d="M512.752 55.213h13.585l-.689-1.893-12.442.714zM515.947 46.912l7.605.656-.238-.656-6.912-1.182z"/><path fill="#72C9A6" d="M513.206 54.034l12.442-.714-.614-1.686-11.106.524zM516.402 45.73l6.912 1.182-.57-1.563-5.953-.63zM495.457 72.583l14.63-1.397-1.001-2.269z"/><path fill="#35785D" d="M539.233 66.058l8.091-.24 3.254.24-3.408 3.93.052-1.418-8.053-1.216-.054 1.083-2.849-1.877z"/><path fill="#54B08B" d="M536.266 66.56l14.312-.502-4.145-7.179-3.011-10.911-2.327 10.824z"/><path fill="#72C9A6" d="M536.266 66.56l1.048-1.685 12.105-.824 1.159 2.007zM541.095 58.792l5.338.087-.578-2.095-4.487.737z"/><path fill="#35785D" d="M495.903 92.823l.018-2.232.772-1.603.623 1.782-.202 1.987zM492.466 92.79l-.015-1.97.773-1.602.622 1.781-.202 1.791zM495.575 99.173l.019-2.232.772-1.602.622 1.781-.202 1.987zM492.138 99.14l-.014-1.97.772-1.602.623 1.781-.202 1.791zM495.248 105.916l.018-2.232.773-1.602.622 1.781-.202 1.987zM491.811 105.883l-.014-1.97.772-1.602.622 1.781-.202 1.791zM484.872 109.025l-.015-1.97.773-1.602.622 1.781-.202 1.791zM484.282 114.786l-.014-1.97.772-1.602.623 1.781-.202 1.791z"/><path fill="#72C9A6" d="M515.359 73.63l4.539-6.895L524 73.63l1.048 46.961-10.038.436z"/><path fill="#35785D" d="M518.489 80.706l-.275-5.899 1.646-3.018 1.372 3.156-.411 5.761zM518.489 97.654l-.275-5.899 1.646-3.018 1.372 3.155-.411 5.762zM518.489 114.052l-.275-5.898 1.646-3.018 1.372 3.155-.411 5.761z"/><path fill="#72C9A6" d="M498.813 108.633l-3.997 9.826h3.621l2.562-9.826z"/><path fill="#35785D" d="M500.999 108.633v10.672l-2.562-.846z"/><path fill="#72C9A6" d="M489.275 110.335l-2.634 7.148h2.794l1.638-7.181z"/><path fill="#35785D" d="M491.073 110.302l.341 7.181h-1.979z"/><path fill="#72C9A6" d="M542.164 111.658l3.123 9.16-3.293-.162-1.947-8.998z"/><path fill="#35785D" d="M540.047 111.658v9.369l1.947-.371z"/><path fill="#72C9A6" d="M554.913 114.052l3.129 7.674h-2.836l-1.696-7.674z"/><path fill="#35785D" d="M553.51 114.052l.081 6.975 1.615.699z"/><path fill="#72C9A6" d="M482.46 98.769l6.367-1.789-.193-.803-4.869 1.079zM491.414 81.777l5.858-1.989-.284-.812-4.309 1.288zM498.86 67.903l9.186-1.343-.761-1.724-7.084 1.222zM531.797 73.214l6.982 2.027-.894-1.261-5.585-1.73zM544.192 89.517l7.326 3.306-1.19-1.735-5.638-2.351zM554.947 101.834l4.328 1.646-.595-1.118-3.477-1.081z"/><g><path fill="#35785D" d="M579.341 144.935l.392-7.656 3.258-.296-1.554 7.23z"/><path fill="#3F8F6F" d="M573.901 139.916l14.304-.04-5.911-12.024z"/><path fill="#54B08B" d="M575.644 133.108l12.072.647-3.628-9.732z"/></g><g><path fill="#35785D" d="M606.712 138.683l-1.417-11.697 3.226-.956v12.653z"/><path fill="#3F8F6F" d="M597.698 133.053l21.301-3.916-13.096-10.879z"/><path fill="#54B08B" d="M596.65 125.655l19.542-1.985-9.622-12.019z"/><path fill="#3F8F6F" d="M600.491 115.943h14.467l-9.055-11.234z"/><path fill="#54B08B" d="M602.051 108.831l10.326-1.493-8.896-7.314z"/></g><g><path fill="#35785D" d="M219.113 92.775l2.799-9.723-2.605-1.251-1.728 10.727z"/><path fill="#3F8F6F" d="M227.524 89.233L210 83.004l12.588-7.435z"/><path fill="#54B08B" d="M229.423 83.105l-16.296-4.353 9.798-8.876z"/><path fill="#3F8F6F" d="M227.493 74.346l-12.265-1.976 9.211-8.288z"/><path fill="#54B08B" d="M227.142 68.103l-8.55-2.676 8.54-4.986z"/></g><g><path fill="#35785D" d="M631.948 126.284l-2.235-6.285 2.235-1.112 1.816 6.634z"/><path fill="#3F8F6F" d="M623.074 124.68l17.016-6.235-12.55-6.979z"/><path fill="#54B08B" d="M623.074 118.073l12.009-5.747-9.914-4.961z"/><path fill="#3F8F6F" d="M622.691 111.466l9.047-2.395-7.064-4.274z"/><path fill="#54B08B" d="M622.691 107.365l6.065-1.493-4.428-4.46z"/></g><g><path fill="#35785D" d="M255.649 109.7l.125-6.67 2.484-.252-.64 6.848z"/><path fill="#3F8F6F" d="M247.911 105.07l18.122.166-9.283-10.957z"/><path fill="#54B08B" d="M250.241 98.887l13.264-1.143-7.528-8.138z"/><path fill="#3F8F6F" d="M252.213 92.569l9.31.95-5.103-6.491z"/><path fill="#54B08B" d="M253.659 88.732l6.202.742-2.572-5.735z"/></g><g><path fill="#35785D" d="M230.623 100.838l1.954-6.692 2.356.745-2.698 7.383z"/><path fill="#3F8F6F" d="M226.602 94.139l14.401 3.115-6.567-7.537z"/><path fill="#54B08B" d="M229.894 90.178l8.967 2.76-3.406-7.22z"/><path fill="#3F8F6F" d="M231.608 86.899l6.592 1.413-2.011-5.69z"/><path fill="#54B08B" d="M233.625 83.04l5.011 2.475.442-8.42z"/></g><g><path fill="#35785D" d="M200.659 85.525l-.069-6.971 2.47.031-.441 7.848z"/><path fill="#3F8F6F" d="M194.869 80.28h12.524l-6.308-6.504z"/><path fill="#54B08B" d="M196.872 75.535l9.381.042-5.352-5.923z"/><path fill="#3F8F6F" d="M197.562 71.899l6.718-.558-3.574-4.862z"/><path fill="#54B08B" d="M198.374 67.621l5.512.916-2.017-8.186z"/></g><g><path fill="#3F8F6F" d="M680.457 69.103l-62.2 63.361-50.912 15.273-16.123 33.218-6.393 11.39 159.756-18.658z"/><path fill="#35785D" d="M685.423 90.631l-37.575 39.223 34.715 13.521-25.961 20.564-30.72-3.595-31.881 26.258 110.584-12.915z"/><path fill="#54B08B" d="M618.257 132.464l24.987 5.808-29.094 11.037-46.805-1.572zM656.531 142.012l-50.628 20.74 19.979-2.408 45.993-8.406zM680.457 69.103l2.187 9.483-64.387 53.878z"/></g><g><path fill="#3F8F6F" d="M190.377 75.166l59.569 33.665 38.179-2.081 44.918 10.46 56.3 1.179 37.412 39.678 50.179-5.194 67.895 39.472-120.402 14.062-260.31-33.083L182.5 112.5l-.275-6.906 4.175-15.617 5.017-2.06z"/><path fill="#35785D" d="M182.235 105.597l34.803 30.118 24.179-1.831 26.203 13.853-43.399 7.181L244 168.167l56.5-14.334 109.288 35.215L447.5 183l97.329 9.345-120.402 14.062-260.31-33.083z"/><path fill="#54B08B" d="M190.936 73.074l59.01 35.757-22.171 3.727L186.4 89.977zM249.946 108.831L317 123.5l106.747 45.462 53.187-16.089-63.49-8.924-11.42 4.403-63.395-35.395-49.379-13.332z"/></g><g><path fill="#709D53" d="M472.573 119.482l8.045 12.659 10.317 2.966 13.324 18.338h8.54l8.148 15.046 12.622-2.316 7.651-18.841 6.104-1.382 19.083-25.553-35.855-2.916-15.278 1.856-26.301-4.289z"/><path fill="#618C45" d="M480.618 132.141l5.007-2.944v-4.684l5.31 10.594zM547.324 145.952l-4.557-2.161 3.762-16.106-7.386 10.196-1.315 17.806 3.392-8.353zM515.274 119.339l7.242-.88-3.026 21.924 8.244 2.435v16.797l5.835 6.56-12.622 2.316-8.148-15.046h-8.54l-3.599-14.782 9.287-.782z"/><path fill="#618C45" d="M530.552 117.483l-2.818 25.335 5.835 4.832 7.526-29.31zM500.66 138.663l-2.409-21.894-9.278-1.719 6.809 21.829z"/></g><g><path fill="#54B08B" d="M421.28 73.15l3.954 2.897 15.47-2.376 12.933 7.101 3.519 4.238 3.795.961-.95 6.36-8.245-4.537 1.886-1.823-4.239-3.038-8.591 2.376-20.418-8.85-6.797 1.699L408 68.55l7.208 6.836z"/><path fill="#3F8F6F" d="M453.642 85.971l-1.451-3.147-2.788.109-13.164-2.089-11.005-4.797-4.84.412-8.342-.953 1.545 2.652 6.592-1.07 20.623 8.221 8.476-1.545z"/><path fill="#4D9974" d="M445.601 76.36l10.576-4.941-8.257 6.214z"/><path fill="#54B08B" d="M445.601 76.36l-3.266-4.785 2.207-4.992 11.635 4.836z"/><path fill="#3F8F6F" d="M455.452 87.941l1.477.207.144.764zM458.723 87.768l.723-.693-.162 1.408z"/><path fill="#3F8F6F" d="M460.001 92.331l-5.671-4.516-.688-1.844-1.886 1.823z"/><path fill="#72C9A6" d="M460.951 85.971l-3.926-.189-5.122-4.758-12.007-3.932-14.662-1.045 15.47-2.376 12.933 7.101 3.519 4.238zM457.691 86.605l1.997 2.282.118 2.566zM456.177 71.419l-11.635-4.836 8.883 4.744-1.366 2.016zM425.234 76.047l-3.954-2.897-6.072 2.236 6.142-1.093zM407.002 67.842l.548 4.173 1.991-.82.512.879 5.155 3.312-4.923-4.669 1.902-1.046z"/><path fill="#3F8F6F" d="M439.896 77.092l3.047-13.387-24.36-8.409 16.231 11.408z"/><path fill="#4D9974" d="M439.896 77.092l6.36-14.385-3.313.998z"/><path fill="#54B08B" d="M446.256 62.707l-27.673-7.411 24.36 8.409z"/><path fill="#3F8F6F" d="M436.905 82.699l-8.924 1.257-2.326-1.809-3.023-.935 4.226-.392 1.348 1.26 2.18-2.062zM445.82 83.584l2.14 2.712-.519 1.938-.993-.689-.232-1.541-4.008-1.691z"/><path fill="#E8F078" d="M460.219 93.12l3.975 2.017-.755 2.821 1.241 1.385-.06 5.041-4.108-5.935.018-1.27-1.983-2.229z"/></g></g><g><path opacity=".1" fill="#2B2B2B" d="M119.153 292.541l70.172-21.174 80.423 21.598-85.345 15.375z"/><path fill="#99C26D" d="M153.269 199.549l-11.481 14.374-4.266 55.914 45.62-19.256 28.866-23.739-30.027-29.245z"/><path fill="#FFE6D6" d="M189.174 123.97l9.228 18.514 2.348 8.974 4.164 4.093 9.92 19.904-29.068 14.447-12.849 15.515-47.405-25.129 8.478-8.957 6.056-2.387-3.028-19.635 41.449-27.359z"/><path fill="#F5CAB3" d="M137.018 149.309l29.168 50.08 19.58-9.487-11.808 24.004-48.446-33.618 8.478-8.957z"/><path fill="#C4937D" d="M185.766 189.902l-23.213 10.887 11.405 13.117z"/><path fill="#F5CAB3" d="M157.91 161.641l38.555-17.692-13.323 26.559z"/><path fill="#FFF1E8" d="M175.568 153.539l7.574 16.969 7.065-3.434-7.319-16.894z"/><path fill="#C4937D" d="M183.142 170.508l5.35 1.327 1.715-4.761zM139.366 189.902l5.221-4.441.372 8.322zM141.156 183.341l-4.744-5.551-4.643 2.776z"/><path fill="#737373" d="M185.766 117.132l3.408 6.838-13.606 20.917-23.67-22.05z"/><path fill="#606060" d="M175.568 144.887l-32.901 1.824 9.231-23.874z"/><path fill="#4E4F4F" d="M138.41 151.699l7.994 24.139-5.248 2.75-5.652-6.753-9.992 8.453-12.717-30.979z"/><path fill="#737373" d="M151.898 122.837l-39.103 26.472 25.615 2.39 4.257-4.988z"/><path fill="#C4937D" d="M177.187 180.566l22.306-11.112 1.211 2.381-22.406 11.506z"/><path fill="#35785D" d="M146.459 165.519l-10.955 6.316 3.069 3.667 10.792-4.994z"/><path fill="#4A8E6E" d="M198.403 142.486l-51.944 23.032 2.906 4.989 10.98-4.989 3.772 7.805 16.798-7.805-4.425-9.914 7.302-3.337 4.641 10.711 16.48-7.429-6.51-13.063zm-22.427 22.082l-9.487 4.138-3.533-6.762 9.79-4.441 3.23 7.065zm11.304-13.726l9.185-4.037 3.533 7.57-9.185 4.138-3.533-7.671z"/><circle fill="#2B2B2B" cx="169.517" cy="162.752" r="1.918"/><circle fill="#2B2B2B" cx="192.983" cy="152.305" r="1.918"/><path fill="#F5CAB3" d="M180.915 165.519l2.227 4.989-19.025 2.816zM188.433 162.979l1.774 4.095 14.707-11.524zM149.365 170.508l12.882-1.054-1.902-3.935z"/><path fill="#3F8F6F" d="M137.522 269.837L163 286l45.779-5.406 3.229-53.752z"/><path fill="#35785D" d="M137.522 269.837l71.257 10.757-49.661 10.757z"/><path fill="#F5CAB3" d="M212.008 226.842l7.048 49.975-10.277 3.777-6.662-19.638-4.183-25.99z"/><path fill="#FFE6D6" d="M197.934 234.966l10.845 45.628-15.201 3.293-17.615-36.239z"/><path fill="#3F8F6F" d="M219.056 276.817l19.799 13.322-28.277 2.329-1.799-11.874z"/><path fill="#54B08B" d="M208.779 280.594l20.387 17.048-32.443-1.211-3.145-12.544z"/><path fill="#738D56" d="M141.788 213.923l35.399 6.575-1.224 27.15-36.597-7.569zM181.981 197.597l25.317 13.83-2.384 8.505z"/><path fill="#F5CAB3" d="M177.187 220.498l27.727-.566 7.094 6.91-36.045 20.806z"/><path fill="#C4937D" d="M212.008 226.842l-11.79 17.735-24.255 3.071 21.971-12.682z"/><path fill="#FFE6D6" d="M207.298 211.427l16.519 7.542-11.809 7.873-7.094-6.91zM204.914 219.932l-22.026-9.441-5.701 10.007z"/><path fill="#C4937D" d="M182.888 210.491l11.097 9.664-16.798.343zM223.817 218.969l-10.571 16.65-1.238-8.777z"/><path fill="#737373" d="M158.277 160.279l12.259-9.084 4.229 1.773zM182.888 149.366v-3.279l15.515-3.601z"/></g><g><path fill="#F5CAB3" d="M426.154 118.837l11.638-5.092 2.91 9.082.873 10.121-9.602 6.4z"/><path fill="#FFE6D6" d="M437.792 113.745l11.929-4.364 2.037 13.383-10.183 10.184zM426.154 118.837l2.619-14.402 4.364 1.454.707 16.83-5.502 3.828z"/><path fill="#EBBEA7" d="M310.375 209.688l-14.379-6.416 9.442-7.397z"/><path fill="#738D56" d="M322.781 138.945l-6.863-1.033-18.089-1.895 25.859 16.421-.001 8.795 11.026 22.434 14.833-14.463z"/><path fill="#44612D" d="M307.625 155.625l13.886 23.073 8.36 3.755 6.027-8.58-12.211-21.263z"/><path fill="#5A753D" d="M285.28 166.958l11.385 21.027 14.66-11.462-6.921-12.685 19.283-11.228-11.062-11.11-21.72 18.79z"/><path fill="#98C26C" d="M271.705 161.197l10.6 2.782 8.6-3.689 25.47-21.665-10.94 1.354-7.606-3.962z"/><path fill="#738D56" d="M271.705 161.197l2.962 32.47 21.998-5.682-5.76-27.695z"/><path fill="#3F8F6F" d="M274.667 193.667l21.998-5.682 14.66-11.462 2.953 4.982-15.39 11.887-23.638 6.025z"/><path opacity=".1" fill="#2B2B2B" d="M267.289 288.562L343.667 302l78.666-14.667-82.666-12.666z"/><path fill="#2B614B" d="M355.125 269.196v9.431l11.646-3.596 6.621-5.027 2.163-8.495zM305.085 260.709l-3.496 17.967 10.082-.049 9.562-6.051 2.144-4.521z"/><path fill="#53AF8A" d="M373.392 270.004l-18.267 8.623v4.902l15.494 1.298 19.027-1.298z"/><path fill="#36795D" d="M355.125 283.529h34.521v4.666h-34.521z"/><path fill="#53AF8A" d="M321.233 272.576l4.25 13.537-11.958 2.333-13.633-2.333 1.697-7.437z"/><path fill="#36795D" d="M299.892 286.113h25.591v4.666h-25.591z"/><path fill="#738D56" d="M389.734 156.994l-35.628 52.385-18.208-35.506-14.387 4.825-27.094 76.052 36.674 22.199.134.101 61.132-24.07z"/><path fill="#98C26C" d="M376.876 160.941l-12.066 21.07-6.144-5.517-9.12-7.29-13.648 4.669-4.183 97.946 54.51-115.161-8.887 3.04z"/><path fill="#8F8F8E" d="M397.576 83.898l-19.194 3.706 1.279 9.594 1.96 11.64 9.704-6.758z"/><path fill="#DDDDDC" d="M376.11 75.045l5.313 14.426 16.153-5.573z"/><path fill="#8F8F8E" d="M383.674 121.019l3.732 3.036 7.877 1.61 6.883-14.673-10.965 3.667z"/><path fill="#C4C3C3" d="M391.325 102.08h-12.943l5.292 18.939 18.492-10.027zM311.645 114.659l-15.842 4.338-4.617 12.095 9.532 1.757 12.172-10.321z"/><path fill="#8F8F8E" d="M309.592 103.605l-22.019 5.782 8.23 9.61 14.986 2.831 4.358-7.169z"/><path fill="#DDDDDC" d="M309.653 87.754l-4.352.94-3.317-4.239-14.411 24.932 22.516-3.112z"/><path fill="#8F8F8E" d="M322.107 125.104l-30.921 5.988 6.643 4.925 26.541-4.345z"/><path fill="#8E8E8E" d="M378.866 74.857l.045.188-.019-.188z"/><path fill="#738D56" d="M431.659 140.124l-9.956-19.311-14.219 6.954-12.435 25.902z"/><path fill="#98C26C" d="M383.674 121.019l-1.587 15.242 16.784 13.812 8.613-22.306z"/><path fill="#5A753D" d="M386.225 156.658l23.483 6.655 14.733-13.24 3.959-11.967-29.529 11.967-12.646-13.402-20.247-20.922z"/><path fill="#36795D" d="M426.167 118.667l-4.464 2.146 6.697 17.293-18.692 25.207 5.625 1.687 19.379-25.537z"/><path fill="#728C56" d="M377.338 159.698l8.887-3.04-4.429-9.018z"/><path fill="#53AF8A" d="M349.546 169.204l1.16.733-1.16-.733z"/><path fill="#35785D" d="M378.62 147.802l-4.485 12.124-.425 1.011 3.628-1.239 4.458-12.058-1.7-3.462z"/><path fill="#53AF8A" d="M344.202 127.306l-2.212 9.365-20.757 9.211 31.52 21.894.189.267 20.768-7.106z"/><path fill="#73C6A4" d="M315.63 144.231l5.603 1.651 24.533-9.211-34.977-14.843-10.071 11.021z"/><path fill="#2B614B" d="M364.81 113.043l-.04-.08-.141.097z"/><path fill="#36795D" d="M350.708 164.6l-49.99-31.751-2.889 3.168 51.717 33.187 19.049 24.701 10.382-32.964zM344.202 127.306l-11.47-7.836-21.087-4.811-.856 7.169 34.977 14.843z"/><path fill="#FFE6D6" d="M385.043 110.556l-11.475-66.998-19.071-14.695-12.102 10.235-25.129-1.65-4.376 3.984 9.098 17.754 15.619 64.377 22.986-6.347z"/><path fill="#ECEBEB" d="M354.497 32.688l19.071 10.87-11.371-15.173-9.352-2.744-1.972 3.222z"/><path fill="#DDDDDC" d="M352.845 25.641L333.612 20l.456 14.334 10.378 9.224 10.051-10.87z"/><path fill="#C4C3C3" d="M315.296 34.334l.203 2.249 1.554 1.279 27.358 5.731.035-.035L333.612 20z"/><path fill="#8F8F8E" d="M341.476 54.193l.919 2.763-9.908 7.222-1.28-3.229zM355.964 51.738l1.097 3.299 10.329 1.612.701-2.234z"/><path fill="#F5CAB3" d="M332.487 64.178l24.733 25.293-1.256-21.543-9.106-8.797 7.718-1.358 3.974 11.088 3.686 6.123 5.154-18.335-10.329-1.612-2.485 2.736-7.718 1.358-4.463-2.175zM324.11 49.124l-6.844-11.676-11.278 19.201 5.659 6.541 1.243 17.219-5.112-5.741-3.717 5.636-6.232 2.306 5.121 14.935 5.271-1.318 3.426.694-1.558 9.354 1.556 8.384 22.423 8.711 4.155.279z"/><path fill="#C4937D" d="M308.221 96.227l1.868 10.048 4.983-11.888zM348.966 120.426l-14.898 2.944 11.321 4.397zM301.984 84.455l8.805 5.887-2.322-7.987z"/><path fill="#36795D" d="M331.715 271.819l-37.298-17.069-1.842 5.114 38.516 17.085.134.101 61.277-18.406-.145-5.664z"/><path fill="#C4C3C3" d="M357.22 89.471l-16.813 15.133 10.301 59.996 18.877 17.382 1.442 2.558-.655 2.546-1.777 6.819 10.333 7.181-6.89-73.319-9.817-37.212z"/><path fill="#ECEBEB" d="M380.913 180.247l8.821-23.253-10.073-59.796-14.592-9.444-2.848 2.801 16.707 110.531 5.676-11.014-2.909-4.72-1.599-2.328z"/><path fill="#44612D" d="M369.5917296 182.0034572l11.326233-1.7347412.781981 5.1056025-11.326233 1.7347412z"/><path fill="#C4937D" d="M368.896 102.667l-11.354 2.271-5.063-7.584 18.167-2.958z"/><circle fill="#2B2B2B" cx="342.288" cy="72.485" r="2.925"/><circle fill="#2B2B2B" cx="365.068" cy="67.32" r="2.925"/><path fill="#FFF1E8" d="M354.576 57.773l5.618 7.991 4.875 21.99-7.849 1.717-4.246-21.711-6.116-8.629z"/><path fill="#8F8F8E" d="M294.709 50.661l9.352 29.643 2.983-1.072 6.372 3.686 1.834-23.348-7.334-4.301 9.35-17.821-1.97-3.114zM365.069 87.754l-7.849 1.717 5.326 3.238z"/><path fill="#FFF" d="M355.688 98.75l12.854-2.292-.521 2.5-10.896 2.021z"/><path fill="#F8D9C5" d="M314.278 181.505l6.429 10.28-10.332 17.903-11.875-16.25z"/></g><g><path opacity=".1" fill="#2B2B2B" d="M549.737 288.834l123.814-15.046 85.669 25.714-29.564 8.147-51.886-8.147-57.135 4.073z"/><path fill="#53AF8A" d="M677.77 210.084l-25.04 12.163 6.565 18.025 14.256-14.659z"/><path fill="#F5CAB3" d="M652.73 222.247l-18.809 8.171.315 9.252 25.059.602z"/><path fill="#C1907C" d="M652.73 222.247l-1.144 17.84 7.709.185z"/><path fill="#F5CAB3" d="M718.115 293.877l-5.043 9.698h6.352l5.981-5.625zM706.257 251.993l11.858 41.884 9.698-3.103-3.099-43.434h-9.315z"/><path fill="#73C6A4" d="M677.77 210.084l-18.475 15.529 17.966 23.652 23.197 16.293 18.187-42.541z"/><path fill="#4F4F4F" d="M729.628 193.644l5.459 25.459-31.325 12.317 10.086-22.703zM736.833 183.123l-7.711-39.424-28.664-2.904 11.208 16.87z"/><path fill="#FFE6D6" d="M660.507 145.106l-17.263 50.819 34.526 14.159 10.862 18.039 20.949-15.905-3.298-20.949-30.84-34.913z"/><path fill="#F5CAB3" d="M677.77 210.084l8.535 3.104 9.879-33.351 10.099 11.432 3.298 20.949-20.949 15.905z"/><path fill="#C1907C" d="M677.77 210.084l8.535 3.104h12.122l-9.795 14.935z"/><path fill="#F5CAB3" d="M659.295 162.466l7.419 1.454 6.837 2.182 9.747 3.928-16.099 11.377z"/><path fill="#FFF1E8" d="M666.714 163.92l-4.073 15.917 4.558 1.57 6.352-15.305z"/><path fill="#C4937D" d="M662.641 179.837l1.261 4.159 3.297-2.589z"/><path fill="#7A7A7A" d="M656.531 142.012l49.154 49.991 2.053-42.048-12.511-15.741z"/><path fill="#606060" d="M707.738 149.955l29.095 33.168-33.071 48.297z"/><path fill="#7A7A7A" d="M705.685 192.003l-22.387 44.654 20.464-5.237z"/><path fill="#4F4F4F" d="M736.833 183.123l-31.148 8.88-49.154-49.991z"/><ellipse fill="#2B2B2B" cx="677.261" cy="174.838" rx="2.4" ry="2.902"/><ellipse fill="#2B2B2B" cx="660.241" cy="169.034" rx="2.4" ry="2.902"/><path fill="#606060" d="M683.298 170.03l-8.437-6.11-1.31 2.182zM666.714 163.92l.485-2.909-7.904 1.455z"/><path fill="#C1907C" d="M670.642 193.644l-8.001-7.03-7.71.873 6.11 3.201z"/><path fill="#E0B19D" d="M670.642 193.644h-10.401l-5.31-6.157 6.11 3.201z"/><path fill="#3E8E6F" d="M659.295 225.613v21.325l12.002 20.172 20.001 19.008 9.16-20.56z"/><path fill="#73C6A4" d="M691.298 286.118l-32.003-39.18-1.455 24.827 9.359 24.828z"/><path fill="#9BC267" d="M659.295 246.938l-35.447-10.281.767 34.772 12.035 23.709 30.549 1.455z"/><path fill="#53AF8A" d="M703.762 231.42l2.495 20.573 26.211-6.607-5.377-23.139z"/><path fill="#C1907C" d="M724.714 247.34l.691 9.689-19.148-5.036z"/><path fill="#FFF1E8" d="M718.115 293.877l9.698-5.043h13.384l-4.364 5.043-10.572 7.565z"/><path fill="#F5CAB3" d="M741.197 288.834l9.504 11.056-12.802 3.685-11.638-2.133z"/><path fill="#FFE6D6" d="M635.08 239.69l-11.232-3.033-9.698-11.044 19.771 4.805z"/><path fill="#F5CAB3" d="M623.848 236.657l-20.367 32.586 6.207 5.044 19.214-3.678z"/><path fill="#60AF89" d="M603.481 269.243l-8.922 13.19 15.129-8.146z"/><path fill="#C1907C" d="M623.848 236.657l-.986 35.108 6.04-1.156z"/><path fill="#FFE6D6" d="M628.497 267.886l-25.016 7.952-1.357 8.438 3.879 8.437 26.767 3.88z"/><path fill="#73C6A4" d="M603.481 275.838l-16.487 3.686v8.34l3.492 4.461 15.517.388z"/><path fill="#F5CAB3" d="M614.15 225.613v11.507l3.273 9.818 6.425-10.281zM635.08 239.69l-7.353 8.993-2.663-3.858 2.797-7.004z"/><path fill="#C1907C" d="M623.848 236.657l-6.425 10.281 6.24-3.686z"/><path fill="#3E8E6F" d="M586.994 279.524l-12.219-11.638v24.827l15.711-.388z"/><path fill="#709D53" d="M667.199 296.593l-38.702-28.707 4.273 28.707z"/></g><g><path opacity=".1" fill="#2B2B2B" d="M429.17 332.248l87.333-20.207 73.866 22.34-104.036 15.712z"/><path fill="#758D53" d="M459.865 316.925l-12.22 2.036v13.675l16.294 4.655 12.995-6.24z"/><path fill="#476121" d="M459.865 316.925l4.074 20.366 12.995-6.24z"/><path fill="#54B08B" d="M511.072 253.983l-11.056 4.379-14.16 24.924 15.278 19.798 10.132-25.728z"/><path fill="#FFE6D6" d="M485.856 283.286l-17.554 5.562-8.437 8.857 41.269 19.22v-13.841z"/><path fill="#F5CAB3" d="M473.814 328.756l-13.949-11.831v-19.22l12.859 5.379z"/><path fill="#F5CAB3" d="M468.302 288.848l-9.019-5.562-9.019 13.082 9.601 1.337z"/><path fill="#C4937D" d="M450.264 296.368l9.601 10.276v-8.939z"/><path fill="#FFE6D6" d="M491.675 187.162l-14.741 41.314 25.991 11.84 8.147 13.667 22.694-8.438-21.531-18.809 3.88-12.031-10.765-4.726-4.752 8.411-5.431-6.029 6.982-21.394z"/><path fill="#F5CAB3" d="M502.149 190.967l-25.215 37.509 25.991 11.84 8.147 13.667h11.953l10.741-8.438-7.565-12.948-13.463-7.418 3.377-10.474-10.765-4.726-4.752 8.411-5.431-6.029z"/><path fill="#C4937D" d="M476.934 228.476l26.67 1.455-1.358-5.431 8.535.679-7.856 15.137zM504.089 221.7l3.103-6.607 4.656 1.552z"/><path fill="#446125" d="M533.766 245.545l31.228-30.452-27.155-20.208-27.058 30.294z"/><path fill="#738D56" d="M537.839 198.566l-18.621-12.985-17.069 5.386-6.982 21.394 5.431 6.029 4.752-8.411 10.765 4.726-5.334 10.474z"/><path fill="#709D53" d="M537.839 198.566l-24.246-24.879-21.918 13.475 10.474 3.805z"/><path fill="#738D56" d="M513.593 173.687l37.629 7.268 13.772 34.138-27.155-16.527-17.457-16.7z"/><path fill="#3F8F6F" d="M533.766 245.545l23.857 35.746-33.733 43.586-22.756-21.793 9.938-49.101z"/><path fill="#35785D" d="M557.623 281.291l-5.431 39.707-16.293 3.879-12.22-7.177zM501.134 303.084l22.545 14.616-12.898 3.298-11.929-6.983z"/><path fill="#6F7173" d="M552.192 320.998l-4.655 15.905-31.034 1.94-22.646 4.655 4.995-29.483z"/><path fill="#4F5253" d="M547.537 336.903l-48.685-22.888-4.995 29.483z"/><path fill="#858686" d="M493.857 343.498l-20.043-14.742-1.09-25.672 26.128 10.931z"/><path fill="#6F7173" d="M498.852 314.015l-25.038 14.741 20.043 14.742z"/></g></svg>