<svg xmlns="http://www.w3.org/2000/svg" viewBox="0 0 900 350"><g fill-rule="evenodd" clip-rule="evenodd"><path fill="#C4C4C4" d="M573.139 60.79l-22.459 9.271-54.794-16.423L518 48.797z"/><ellipse transform="matrix(.2298 -.9732 .9732 .2298 163.4304 337.6183)" fill="#E8F078" cx="295.015" cy="65.558" rx="29.56" ry="29.56"/><path fill="#D6D6D6" d="M658.769 48.797L644.315 60.79h-71.176l-60.3-7.152 30.107-4.841h36.145z"/><path fill="#C4C4C4" d="M243.5 91.119l28.72 12.383 27.705-17.593-43.068-6.578-72.754 6.578z"/><path fill="#D6D6D6" d="M299.925 85.909l-13.401-11.478-48.208-5.165-54.213 16.643 78.581-4.326z"/><path fill="#ECECEB" d="M286.524 74.431l-20.99-10.993-73.22 3.046-8.211 19.425 58.981-12.934zM542.946 48.797l37.734-13.171 76.163 6.585 1.926 6.586-85.273 4.841zM542.946 48.797l-19.115-9.463-57.539 14.304h46.547z"/></g><g fill-rule="evenodd" clip-rule="evenodd"><path opacity=".1" fill="#2B2B2B" d="M850.191 279.052L900 268.986l-48.393-10.666z"/><path fill="#AFAFAF" d="M636.69 268.457l-6.333-102.49 61.26-1.167 65.438 1.934-6.555 104.637z"/><path fill="#8F8F8F" d="M630.357 165.967l-4.423-5.847 63.226-2.134 72.562 2.134-4.667 6.614z"/><path fill="#B7B7B7" d="M625.934 160.12l1.822-9.041 63.861-2.853 67.282 2.084 2.823 9.81z"/><path fill="#DDDDDC" d="M627.756 151.079l8.941-7.842 58.804-2.396 56.684 1.869 6.714 7.6z"/><path fill="#9DA1A2" d="M702.252 160.12l7.817 18.823 6.798-18.823z"/><path fill="#AFAFAF" d="M636.697 143.237l1.413-9.132 57.391-1.959h54.919l1.765 10.564z"/><path fill="#DDDDDC" d="M638.11 134.105l25.429-13.324 68.948-.795 17.933 12.16z"/><path fill="#AFAFAF" d="M846.748 267.132l41.586 1.854-3.178-41.586-33.905-5.827z"/><path fill="#8F8F8F" d="M851.251 226.075l33.905 1.325 3.178-3.62-37.083-5.651z"/><path fill="#DDDDDC" d="M888.334 223.78l-33.11-38.673-3.973 33.022z"/><path fill="#C4C4C4" d="M852.567 207.181l18.682-3.355 7.258 8.476zM683.581 272.165l8.036-164.491h39.731l-22.336 165.989z"/><path fill="#DDDDDC" d="M683.581 116.639l54.83-5.522V96.813l-23.817-5.959-32.867 4.105z"/><path fill="#8F8F8F" d="M683.581 116.639l7.002 12.217 38.402-3.628 9.426-14.111z"/><path fill="#C4C4C4" d="M681.727 94.959l1.854-6.887 27.637-3.178 27.193 5.297v6.622zM683.581 116.639l13.862-21.165 4.936 19.272 8.839-18.822 7.604 17.166 7.848-16.66 11.741 14.687z"/><path fill="#DDDDDC" d="M683.581 88.072l23.882-24.369 7.131-5.033 7.13 5.033 16.687 26.488z"/><path fill="#C4C4C4" d="M707.463 63.703L714.594.926l7.13 62.777z"/><path fill="#8F8F8F" d="M702.034 163.74l1.06-17.659 5.65-6.356 3.532 7.769-2.471 16.599z"/><path fill="#C4C4C4" d="M750.597 277.727l-2.12-140.122 110.455 13.474-8.741 127.973z"/><path fill="#DDDDDC" d="M742.119 142.71l123.17 1.135 1.059-10.341-124.229-1.358z"/><path fill="#9DA1A2" d="M742.119 142.71l6.557 7.521 110.256.848 6.357-7.234z"/><path fill="#DDDDDC" d="M748.676 150.231l8.276 8.83 7.152-8.716 8.743 8.716 6.886-8.599 9.183 9.658 8.123-9.53 8.652 9.53 6.624-9.416 8.008 9.416 7.353-9.041 7.947 9.041 7.68-9.186 8.478 9.186 7.151-9.041z"/><path fill="#8F8F8F" d="M834.828 194.457V177.2l5.563-6.011 3.443 7.738-2.649 15.717z"/><path fill="#DDDDDC" d="M699.474 162.283h12.802l-1.058 5.519-11.744-1.835zM831.649 193.23h12.185v5.475l-12.185-.707z"/><path fill="#8F8F8F" d="M814.963 193.471l-1.59-16.271 5.297-6.998 4.238 6.678-1.588 16.777z"/><path fill="#DDDDDC" d="M811.783 192.243h12.185v5.475l-12.185-.707z"/><path fill="#C4C4C4" d="M742.119 132.146l6.557-9.127 113.7 4.564 3.972 5.921z"/><path fill="#DDDDDC" d="M748.676 123.019l11.456-8.848h94.297l7.947 13.412z"/><path fill="#C4C4C4" d="M760.132 114.171l-2.915-10.425 97.212 3.928v6.497z"/><path fill="#A3A3A3" d="M748.676 123.019l8.014 9.287 7.679-8.344 8.478 8.184 5.312-7.943 8.46 8.43 7.42-7.793 7.149 7.793 8.211-7.405 6.356 7.723 7.153-6.952 6.622 6.952 7.15-6.399 7.154 6.399 6.354-5.857 6.536 5.941 5.652-5.452z"/><path fill="#DDDDDC" d="M757.217 103.746l25.694-18.852h54.83l16.688 22.78z"/><path fill="#C4C4C4" d="M809.399 105.854l-14.303-20.96V69.266h28.872v15.628z"/><path fill="#A3A3A3" d="M795.096 69.266l-6.18-3.708 39.289-1.855-4.237 5.563z"/><path fill="#DDDDDC" d="M788.916 65.558l16.907-12.715h9.14l13.242 10.86z"/><path fill="#C4C4C4" d="M805.823 52.843l4.57-30.726 4.57 30.726z"/><path fill="#8F8F8F" d="M807.016 90.191V76.153l3.377-3.178 2.98 3.443-1.59 13.773z"/><path fill="#C4C4C4" d="M795.096 84.894l-7.668 20.072-4.517-20.072zM823.968 84.894l4.237 21.72 9.536-21.72z"/><path fill="#8F8F8F" d="M865.538 256.536v-13.884l3.011-5.009 3.01 5.009v13.884z"/></g><g fill-rule="evenodd" clip-rule="evenodd"><path opacity=".1" d="M28.176 287.603l113.016-17.557 178.806 4.37 239.369-10.463 156.088 4.504 48.047 14.494 56.821 5.939 36.401 9.767-122.55 10.477-129.627-6.773-160.684 5.033-115.488-6.49-109.66 8.23-136.15-13.659z"/><path fill="#35785D" d="M814.963 278.583l-32.582 16.892-51.916 6.886-48.738-10.897-38.478 2.685-52.096-6.546-77.376 5.752-136.133-7.946-82.114 8.74-32.846-2.382-63.571 6.533-52.976-15.54-25.958 5.43H61.375l-24.369-35.096 48.738 13.773 84.232-24.369 39.749 13.774 59.317-13.774 131.396-4.238 67.794 15.364 133.953-19.072 44.578 15.362 77.344-15.362 25.43 17.482 92.708-13.774z"/><path fill="#3F8F6F" d="M842.245 238.26l-92.179 22.25-29.668-16.422-72.576 10.596-44.729-2.295-137.503 6.002-67.286-16.422-129.262 7.416-66.403 10.472-36.325-16.299-81.1 28.607-48.208-19.071 20.661-28.078 21.19 9.536 33.701-7.947 8.68-20.661 38.673-12.184 29.137 15.893 45.559-15.893 30.727 22.251 16.952-14.833 63.571-15.895 43.971 15.895 60.379-27.549 37.626 5.298 2.12 27.548 74.166-32.846 24.37 15.363 4.706 13.244 47.725-4.767 16.437 22.779 50.328-25.428 40.792 23.838 40.261-6.356 6.358 10.596 29.136-8.477z"/><path fill="#54B08B" d="M37.006 253.094l41.322-11.655 29.136 5.828 32.316-28.078 48.208 11.654 19.072 13.245 55.095-17.483 20.131 4.238 54.581-14.302 49.767 10.595 13.804-12.715 63.572 8.477 11.109 10.859 27.019-16.158 47.148 5.299 24.899 10.859 22.78-10.859L651 238.79l57.744-15.892 41.853 7.945 13.243 11.655 28.077-14.304 42.406-.419 7.922-16.002-42.382-16.953-29.666 7.946-32.845-14.833-40.261 15.893-15.364-15.893-29.137 14.833-11.67-10.066-47.725 4.239-2.042-9.006-28.093-17.483-69.929 26.489-5.298-18.012-41.851-11.125-57.214 28.607-42.911-15.364-67.28 13.775-19.086 12.713-22.764-16.952-27.002-10.065-22.797 23.839-23.839-13.774-47.678 9.536-2.853 26.488-34.23 2.12-24.37-5.827z"/><path fill="#72C9A6" d="M799.863 194.82l13.51-17.62-51.651-12.047-33.376 15.363-36.729 17.65 17.127 24.732 21.721-20.132 20.132 28.077zM681.727 187.933L651 238.79l-54.102-55.625 34.054-9.536 20.578 9.536 21.177-6.887z"/><path fill="#72C9A6" d="M593.195 196.939l-43.909 25.959-57.539-17.218-15.569-21.985-41.067-3.179-45.283 20.662-47.679-15.365-59.863 13.775-20.131 27.017-25.428-36.024 35.493-15.362 64.647-7.417 49.767 8.476 45.591-23.31 84.746 6.358 14.303 8.476 37.084-7.417 33.827 23.31 8.993 11.647zM186.928 204.355l-20.131-23.839-52.445 11.92-1.794 34.169-58.6-3.707 24.37 18.541 61.452-22.25zM186.928 204.355l22.797-23.839 22.763 37.083-29.849 42.258z"/><path fill="#3F8F6F" d="M232.488 217.599l24.369 23.84-54.218 18.418zM813.373 177.2l6.95 25.804-44.828 9.632z"/><path fill="#54B08B" d="M651.53 183.165l16.593 27.283-56.945-15.106z"/><path fill="#3F8F6F" d="M750.066 260.51l-54.565 17.482 34.964 24.369 42.382-24.899zM146.137 282.76l20.177-39.202 32.799 54.742zM85.214 272.165L61.375 288.19h58.804zM681.727 291.464l13.774-13.472-47.679-23.308-8.509 16.246 3.936 23.219zM269.042 249.385l26.488 44.764-32.846-2.382z"/><path fill="#35785D" d="M651 238.79l-47.907 13.599-6.128-29.491zM246.705 231.509l22.337 17.876 13.244-18.542-20.131-4.238z"/><path fill="#54B08B" d="M691.617 198.166l38.848 4.6 31.257-37.613zM114.352 192.436l-36.066 32 34.272 2.169M720.398 244.088l30.199-13.245-.531 29.667z"/><path fill="#D9E354" d="M669.543 204.002l3.885 6.357-4.238 3.886-8.125-7.064zM711.57 197.998l3.532 3.18-3.179 2.118-4.59-4.591zM697.443 219.895l7.064-4.944-.353 11.301zM644.468 182.811l6.357-3.884 6.358 8.122-9.891.709zM789.976 191.289l6.003-.708 1.06 6.711-8.123 1.413zM241.847 197.998l6.005 1.414-1.413 5.651-8.123-3.179zM141.193 214.951l3.179 7.417-7.771.353v-6.358zM158.145 201.884l6.004 2.118-8.476 4.592-3.179-6.004zM174.391 205.063l1.766 8.123-6.711 2.471-1.059-7.768zM187.988 230.843l7.947-2.825.706 8.83-7.063 1.059z"/></g><g fill-rule="evenodd" clip-rule="evenodd"><path opacity=".1" fill="#2B2B2B" d="M50.642 324.958l59.334-9.139 79.022 11.831-86.755 11.403z"/><path fill="#A3A3A3" d="M119.602 197.469l38.543-22.214h4.415l4.237 5.261-48.246 26.859-1.021-3.902z"/><path fill="#C4C4C4" d="M158.145 175.255l12.215-25.465 9.681 4.601-13.244 26.125z"/><path fill="#A3A3A3" d="M106.08 159.737l-5.608-30.343 12.29 4.311z"/><path fill="#8F8F8F" d="M123.138 164.119l13.463-23.748-11.772-7.839-1.803 16.997z"/><path fill="#A3A3A3" d="M104.396 332.483l-13.098-2.398-.258-26.002 9.302 12.524z"/><path fill="#C4C4C4" d="M104.396 332.483l-23.243-44.426 14.376-21.817 15.644 39.565 6.359 26.678z"/><path fill="#A3A3A3" d="M111.343 275.344l15.37-144.935-6.893-1.015-10.174 60.129-4.831 62.625 1.802 15.779z"/><path fill="#DDDDDC" d="M117.532 332.483l8.737-3.339-21.454-76.996-9.286 14.092z"/><path fill="#ECECEB" d="M81.153 288.057l10.145-40.261h7.337l6.18 4.352z"/><path fill="#DDDDDC" d="M91.298 247.796l19.875-118.402h8.647l-15.005 122.754z"/><path fill="#A3A3A3" d="M113.785 178.768l-11.807 5.4-37.955-58.57 13.952 8.299z"/><path fill="#3F8F6F" d="M58.196 139.46l9.889-4.431 9.89-1.132 3.884-12.538 18.613 8.035 9.418 7.644 37.322 5.121 8.461 9.545 7.776 12.493 16.592-9.806 25.165-5.915 12.449-12.46-25.429 3.444-23.132-25.694-53.683 5.474-57.215-20.308-32.051 31.208z"/><path fill="#54B08B" d="M26.145 130.14L18.36 74.674l51.491-11.765 19.053 7.946 29.683-30.196 43.973 18.542V85.4h43.067v22.539l21.864 11.301-9.836 16.776-25.429 5.562-23.132-25.693-53.683 5.474-57.215-18.718z"/><path fill="#72C9A6" d="M33.298 74.563l-20.132-3.708 20.132-17.217L49.19 34.831l14.833 5.828L78.286 26.09 88.904 9.402 129.185.926l43.44 21.191-8.476 14.038 15.892 5.387 16.6 2.296v17.481l27.371 16.953-6.357 19.071-1.169 16.209-17.373-2.699-6.799-19.734-46.177-2.782-31.785-31.097-25.448 22.091-34.946 5.828z"/><path fill="#54B08B" d="M114.352 57.24L64.023 40.659 88.904 9.402zM146.137 88.337l12.184-49.797 38.32 22.779z"/><path fill="#3F8F6F" d="M146.137 88.337l-30.726 33.022-26.507-42.028zM53.958 85.159l4.238 17.482L18.36 74.674zM199.113 110.853l-30.019 5.032 23.22-24.766z"/><path fill="#54B08B" d="M172.625 22.117l7.416 19.425-21.72-3.002z"/><path fill="#35785D" d="M163.449 164.197l5.645-48.312-21.882 26.274zM109.89 137.038l5.521-15.679H81.859zM58.196 139.46v-36.819l19.779 31.256zM192.226 141.578l-12.185 12.813 25.586-2.687 12.028-15.688z"/><path fill="#54B08B" d="M224.012 78.272l-31.698 12.847 24.172 22.433zM158.321 38.54L129.185.926 114.352 57.24zM53.958 85.159L49.19 34.831 0 69.266z"/></g><g fill-rule="evenodd" clip-rule="evenodd"><path opacity=".1" d="M217.125 319.956l78.405-7.839 310.633 1.207 61.79 16.761-70.207 19.426-340.889-14.129z"/><path fill="#709D53" d="M604.5 314.667l-8.28 5.289-6.387-4.289-5.166-26 14-1zM291.833 313l7.141 6.315 7.526-2.648 7-29.167-23.5 3z"/><path fill="#728D56" d="M299.925 296.952l-.951 22.363h-15.083v-23.84zM615.001 319.956H596.22l-2.128-27.131 13.096-1.361z"/><path fill="#709D53" d="M625.934 331.372l-12.509-3.752-7.751-34.106 15.021-2.05zM274.339 330.085l12.185-4.524 1.325-27.93-13.51-3.482z"/><path fill="#99C26D" d="M643.315 293.004l-2.235 38.368h-15.146l-7.345-38.245 10.315-4.237zM276.872 297.834l-2.533 32.251h-17.482l-4.415-31.785 13.951-2.825zM430.033 84.894l-143.509 64.958 2.126 5.896 2.627 2.238 86.367-25.84 68.169-30.131-6.541-9.969z"/><path fill="#99C26D" d="M462.851 85.641l146.284 69.091-3.461 7.066-7.928.485-68.061-22.478-83.872-37.79 7.497-9.969zM293.798 175.219l8.443 31.919 2.84 45.251-9.551 5.474-23.31-82.644 11.655-2.764zM618.155 177.2l-15.892 79.336-8.091-6.092-.977-35.975 4.028-39.25 8.94-2.764z"/><path fill="#A0CF7E" d="M642.501 263.953h-192.28l-200.781 6.093 3.002 28.254 390.873-5.296z"/><path fill="#BFDB8E" d="M249.44 270.046l55.641-17.657 145.126-5.917 143.965 3.972 48.329 13.509z"/><path fill="#54B08B" d="M445.813 102.015l-15.78-17.121 15.42-15.628 17.398 16.375z"/><path fill="#D9E354" d="M437.506 84.099l7.007 10.86 11.358-7.682-8.829-10.418z"/><path fill="#54B08B" d="M291.277 157.986l-4.753-8.134-14.304 25.367h21.578l1.732-6.592zM609.135 154.732l9.02 22.468-20.932-1.981-3.051-4.769 3.574-8.167z"/><path opacity=".1" d="M343.73 268.608L375 296.5l46.167-10.333-50.693-16.465z"/><path fill="#738D56" d="M445.813 102.015l-154.536 55.971 13.804 94.403 140.372-.945 148.719-1 3.574-88.161z"/></g><g fill-rule="evenodd" clip-rule="evenodd"><path fill="#9DC268" d="M630.357 112.706h6.333l-5.957 2.931-.376-1.466zM630.733 115.637l4.773.204-4.346 3.127-.427-1.486z"/><path fill="#61B08A" d="M624.491 128.856l-3.731-2.155-4.637-1.473-11.477 3.628-13.339 1.563 7.343 13.637 4.231 6.175 10.223-9.39z"/><path fill="#9DC268" d="M616.123 125.228l-3.019 15.613-21.797-10.422z"/><path fill="#4B8F6E" d="M613.104 140.841l-14.454 3.217 4.123 7.655z"/><path fill="#749D4F" d="M591.307 130.419l-7.834-15.329-3.822 11.463z"/><path fill="#4B8F6E" d="M616.123 125.228l3.78-12.522h10.454l.803 6.262-6.669 9.888z"/><path fill="#D9E354" d="M627.756 117.482c0 1.019-.828 1.846-1.847 1.846-1.019 0-1.846-.827-1.846-1.846 0-1.019.827-1.846 1.846-1.846 1.019.001 1.847.827 1.847 1.846z"/></g><g fill-rule="evenodd" clip-rule="evenodd"><path fill="#35785D" d="M593.375 310.75l7.392-9.574 3.358.199L601 338.5l-15.5-.625-.202-2.272 7.077-3.478zM465.375 327l-14.792 2.75-.083 3.5 35.625.625.385-3.79z"/><path fill="#B8C745" d="M567.75 167.329l-17.212 33.852-5.121-9.712-4.943-14.106-3.798-15.078h15.849z"/><path fill="#FFE6D6" d="M470.617 229.54l-11.568 1.303h-5.739l-7.015-3.353-.842-7.312h20.537z"/><path fill="#54B08B" d="M531.333 204.333l-13 4.334-14.166 7.166-26.796-1.866-10.197 10.086 14.939 27.145 37.838-27.145 4.982-19.247z"/><path fill="#35785D" d="M504.167 215.833l15.415 11.749 2.526-24.636z"/><path fill="#3F8F6F" d="M592.43 326.333l-7.132 9.27h12.448l-1.311-5.518z"/><path fill="#35785D" d="M470.752 266.569l2.564 49.542 7.631 3.467 6.952-1.911 7.896-24.101-6.637-14.275z"/><path fill="#61B08A" d="M487.899 317.667l-1.389 12.418-35.927-.335 22.733-13.639z"/><path fill="#54B08B" d="M515.779 263.953l-45.027 2.616 40.081 44.683 4.433-28.492z"/><path fill="#35785D" d="M568.634 302.228l18.533-.228 2.381 7.513-2.131 8.078-14.567 8.155z"/><path fill="#61B08A" d="M587.167 302l13.6-.824-3.021 34.427-10.329-18.012z"/><path fill="#F5CAB3" d="M440.971 291.2l15.369 1.324-9.013 8.998-12.714 4.247-6.145-8.328 4.91-4.917zM388.824 309.134v11.902l13.248 3.046 13.247-1.413-6.281-4.414-6.966-5.699z"/><path fill="#709D53" d="M434.613 305.769l5.034 7.681 30.991-19.6-14.298-1.326zM388.824 321.036l.228 9.05h38.354l-12.087-7.417z"/><path fill="#EFCCBF" d="M443.863 206.371l20.131-2.49-1.941 8.148-4.061 8.149h-12.539l-2.825-6.993z"/><path fill="#C4937D" d="M463.994 203.881l12.361 12.453-9.181 7.719-9.182-3.875z"/><path fill="#99C26D" d="M382.995 186.696L415 213.125l5.757 9.756-8.757 7.452-21.667-6-20.151 2.11 12.813-10.109z"/><path fill="#709D53" d="M415 213.125l28.863-6.754 3.179 27.612-35.042-3.65z"/><path fill="#3F8F6F" d="M347.279 220.319v12.225l-24.253-19.872-7.196-37.453 19.055 25.993z"/><path fill="#C4937D" d="M397.451 175.337l-14.456 11.359-2.342-5.9 1.554-8.341 8.941-.917z"/><path fill="#FFE6D6" d="M437.245 136.113l-12.758 44.334-42.28-7.992-1.375-29.328 17.84-20.125 18.327 4.73zM412.329 116.766l4.213-2.972h8.338l5.557 3.994 2.329 6.69-11.002-2.763z"/><path fill="#F5CAB3" d="M415.214 134.269l.898 3.767-5.783 17.712-1.723-16.543-5.726-3.579zM421.044 139.668l9.885-.927-12.659 11.111zM398.672 123.002l-16.465 49.453-3.23-16.785 1.855-12.543 7.673-12.002z"/><path fill="#99C26D" d="M366.608 99.509l25.408 7.742 19.866 9.345 10.535 3.976 10.132 3.825 3.872.764 3.378 1.972-2.554 8.98-38.573-13.111-10.405-1.25-9.665-5.571-9.679-.805-8.827-5.485z"/><path fill="#5A753D" d="M418.646 124.468l6.083-3.023 3.045 6.206-6.291 3.104z"/><path fill="#54B08B" d="M366.608 99.509l14.042-20.955 45.542 24.464 1.455 6.392-2.767 4.384-12.551 2.972z"/><path fill="#3F8F6F" d="M426.192 103.018l17.141 9.389-3.534 14.726-7.033-2.655-7.886-10.684z"/><path fill="#067863" d="M402.88 135.626l5.705-3.043 6.629 1.686zM421.044 139.668l4.723-2.453 5.162 1.526z"/><path fill="#FFF1E8" d="M421.044 139.668l-4.932-1.632-5.783 17.712 5.898 1.607z"/><path fill="#C4937D" d="M410.329 155.748l1.783 4.476 4.115-2.869z"/><path fill="#3F8F6F" d="M398.672 123.002l-17.84 20.125-4.019-14.619 1.789-12.327z"/><path fill="#54B08B" d="M378.602 116.181l-18.506-6.29-34.763 53.276 28.334.666 27.165-20.706z"/><path fill="#3F8F6F" d="M380.832 143.127l1.002 21.37-14.766 13.04-8.531 7.482-17.489 7.721-11.285-19.299 2.404-12.774z"/><path fill="#54B08B" d="M332.167 160.667l-4-4.167-24 13 20.238 19.791 9.499 3.449h7.144z"/><path fill="#72C9A6" d="M340 140.5l-35.833 29 28-8.833z"/><path fill="#8AAD64" d="M404.888 166.395l4.575 4.794 5.471-2.562z"/><path fill="#5A753D" d="M398.505 160.343l6.383 6.052 10.046 2.232 5.02-2.877-4.664.441-3.851-2.947-7.532.321z"/><path fill="#2B2B2B" d="M403.726 138.944l3.297 2.36 3.697-.312.36 1.971-4.754.363-3.713-2.738zM421.87 143.845l3.297 2.359 3.698-.312.36 1.972-4.756.362-3.712-2.737z"/><path fill="#709D53" d="M382.995 186.696l-15.611 2.031-.776 39.871 19.605-11.815 11.238-6.773z"/><path fill="#5A753D" d="M397.451 210.01L362.75 219l3.858 28.848 19.605-11.815 3.537 4.467z"/><path fill="#99C26D" d="M367.384 188.727l-26.336 4.013v12.066l4.317 15.513 2.974 19 13.683-5.336 8.16-7.54z"/><path fill="#54B08B" d="M381.834 164.497l.373 7.958.788 14.241L368 198.5l-26.952-5.76z"/><path fill="#35785D" d="M341.048 192.74l4.318 27.579-20.961-31.028z"/><path fill="#446125" d="M373.25 267.75l2.917 45.417 32.871 5.088-8.561-23.661-7.129-15.534-16.535-4.776z"/><path fill="#5A753D" d="M348.339 239.319l-4.573 29.29L397.25 288l-8.198-25.723-8.22-14.481z"/><path fill="#738D56" d="M380.832 247.796l34.393-4.288 25.746 47.692-28.304 16.217L397.25 288z"/><path opacity=".1" d="M348.339 239.319L389.75 268.5l18.366-20.174 16.483-1.854-17.752-1.202-17.347-2.937z"/><path fill="#FFE6D6" d="M400.829 233.983l18.6-3.14-2.905 9.536-3.425 6.093-18.098-1.168 1.746-6.646z"/><path fill="#F5CAB3" d="M419.429 230.843l5.257 15.52-3.42 8.101-8.167-7.992z"/><path fill="#709D53" d="M370.182 226.443l30.647 7.54-6.496 27.184-45.994-21.848zM397.25 288l43.721 3.2-31.933 27.055z"/><path fill="#FFE6D6" d="M462.244 125.477l1.898 13.179 1.149 4.074-.128 3.019 7.147 49.618 35.494-5.223 14.304 12.802 21.19-11.477-8.476-28.034 3.708-20.052-28.342-19.459-26.753 9.343z"/><path fill="#F5CAB3" d="M510.188 123.924l6.756 64.709-15.996 2.52 14.177 5.544 6.983 6.249 15.642-.321 7.667-11.156-8.741-29.184 2.605-6.642 2.163-13.292-19.535-12.534z"/><path fill="#C4937D" d="M500.948 191.153l25.133-3.714-3.973 15.507z"/><path fill="#F5CAB3" d="M470.083 152.667l26.86-3.834-9.535 19.59-5.562.663-3.708-11.701z"/><path fill="#FFF1E8" d="M481.846 169.086l-2.649-17.736 7.014-.995 1.197 18.068z"/><path fill="#C4937D" d="M481.846 169.086l3.443 2.912 2.119-3.575z"/><path fill="#54B08B" d="M470.083 152.667l8.407-5.459.707 4.142zM486.211 150.355v-3.916l10.732 2.394z"/><path fill="#C4937D" d="M477.696 176.459l22.603-3.179-5.474 7.947-12.273 1.588z"/><path fill="#FFF" d="M481.405 177.871l14.126-1.854-2.031 3.709-9.889 1.324z"/><path fill="#D9E354" d="M510.188 123.924l8.564-6.623 13.421-6.092 18.011 10.331 1.126 4.237 1.315 2.244 15.125 39.308-31.074-5.044 4.768-19.934-14.039 3.204-3.531 11.634-10.516-2.903 4.499-25.84z"/><path fill="#E8F078" d="M462.244 125.477l51.272-24.333 18.657 10.065-21.985 12.715-27.813 11.462z"/><path fill="#C4937D" d="M536.676 162.285l-8.741-.421 11.346 9.118zM536.676 148.396l-6.093.437-1.235 8.552z"/><path fill="#749D4F" d="M464.142 138.656l86.042-17.116 2.483 6.481-87.502 17.729z"/><path fill="#3F8F6F" d="M522.125 202.875l-6.625 21.458 1.638 26.629.186 5.574-1.545 7.417-.513 39.4-6.772 30.264 22.604-3.531 18.339 6.104 24.23-10.523-5.552-31.516-5.585-10.684.374-18.399-1.963-4.558 1.589-9.853.97-35.157-17.625-10.25-.458-13.781z"/><path fill="#35785D" d="M517.138 250.962l45.392-.305.374 14.411-47.125-1.115z"/><path fill="#54B08B" d="M562.904 265.068l-27.547 29.081-26.863 39.468 40.941 2.573 18.68-42.041z"/><path fill="#3F8F6F" d="M562.904 265.068l-54.41 68.549 7.285-69.664z"/><path fill="#54B08B" d="M545.417 191.469L515.5 224.333l.279 6.51 1.221 20.49 46.5-35.833z"/><path fill="#E6BDA5" d="M477.371 213.967l-13.377-12.613-4.945 6.306-3.178 6.307 22.109 13.615.186-6.583z"/><path fill="#72C9A6" d="M515.5 224.333l-38.129-10.366 1.296 37.366 38.471-.371z"/><path fill="#FFEAE0" d="M463.994 201.354l-20.131 5.017 12.008 7.596z"/><path fill="#E6BDA5" d="M457.992 220.178l1.057 10.665h-5.739l-7.857-10.665z"/><path fill="#2B2B2B" d="M494.901 156.105c.329 1.734-1.164 3.227-2.898 2.898-.963-.183-1.751-.971-1.934-1.934-.329-1.734 1.164-3.227 2.898-2.898.963.183 1.751.971 1.934 1.934zM477.567 158.522c.329 1.734-1.164 3.227-2.898 2.898-.963-.183-1.751-.971-1.934-1.934-.329-1.734 1.163-3.227 2.898-2.898.964.182 1.752.97 1.934 1.934z"/></g></svg>